<svg xmlns="http://www.w3.org/2000/svg" viewBox="0 0 720 396" font-family="Hiragino Sans, 'Noto Sans CJK JP', 'Yu Gothic', sans-serif" width="720" height="396"><rect x="0" y="0" width="720" height="396" fill="#fff"/><text x="24" y="34" font-size="20" font-weight="700" fill="#1F2933">チーム達成率</text><text x="696" y="34" text-anchor="end" font-size="13" fill="#67707A">2026-06-30</text><line x1="112.0" y1="56" x2="112.0" y2="380" stroke="#EAEDF0" stroke-width="1"/><text x="112.0" y="52" text-anchor="middle" font-size="10" fill="#67707A">0</text><line x1="381.0" y1="56" x2="381.0" y2="380" stroke="#EAEDF0" stroke-width="1"/><text x="381.0" y="52" text-anchor="middle" font-size="10" fill="#67707A">50</text><line x1="650.0" y1="56" x2="650.0" y2="380" stroke="#EAEDF0" stroke-width="1"/><text x="650.0" y="52" text-anchor="middle" font-size="10" fill="#67707A">100</text><text x="102" y="84.0" text-anchor="end" font-size="14" font-weight="700" fill="#1F2933">宮腰</text><rect x="112" y="68" width="538" height="22" rx="6" fill="#F2F4F6"/><rect x="112" y="68" width="108" height="22" rx="6" fill="#3DA0E8"/><text x="660" y="84.0" font-size="14" font-weight="700" fill="#3DA0E8">20%</text><text x="118" y="83.0" font-size="10.5" fill="#fff" opacity="0.95">②練習</text><text x="102" y="128.0" text-anchor="end" font-size="14" font-weight="700" fill="#1F2933">岡野</text><rect x="112" y="112" width="538" height="22" rx="6" fill="#F2F4F6"/><rect x="112" y="112" width="70" height="22" rx="6" fill="#3DA0E8"/><text x="660" y="128.0" font-size="14" font-weight="700" fill="#3DA0E8">13%</text><text x="118" y="127.0" font-size="10.5" fill="#fff" opacity="0.95">②練習</text><text x="102" y="172.0" text-anchor="end" font-size="14" font-weight="700" fill="#1F2933">三浦</text><rect x="112" y="156" width="538" height="22" rx="6" fill="#F2F4F6"/><text x="660" y="172.0" font-size="14" font-weight="700" fill="#9AA3AD">0%</text><text x="118" y="171.0" font-size="10.5" fill="#fff" opacity="0">①型を知る</text><text x="102" y="216.0" text-anchor="end" font-size="14" font-weight="700" fill="#1F2933">今川</text><rect x="112" y="200" width="538" height="22" rx="6" fill="#F2F4F6"/><text x="660" y="216.0" font-size="14" font-weight="700" fill="#9AA3AD">0%</text><text x="118" y="215.0" font-size="10.5" fill="#fff" opacity="0">①型を知る</text><text x="102" y="260.0" text-anchor="end" font-size="14" font-weight="700" fill="#1F2933">戸田</text><rect x="112" y="244" width="538" height="22" rx="6" fill="#F2F4F6"/><text x="660" y="260.0" font-size="14" font-weight="700" fill="#9AA3AD">0%</text><text x="118" y="259.0" font-size="10.5" fill="#fff" opacity="0">①型を知る</text><text x="102" y="304.0" text-anchor="end" font-size="14" font-weight="700" fill="#1F2933">藤江</text><rect x="112" y="288" width="538" height="22" rx="6" fill="#F2F4F6"/><text x="660" y="304.0" font-size="14" font-weight="700" fill="#9AA3AD">0%</text><text x="118" y="303.0" font-size="10.5" fill="#fff" opacity="0">①型を知る</text><text x="102" y="348.0" text-anchor="end" font-size="14" font-weight="700" fill="#1F2933">門田</text><rect x="112" y="332" width="538" height="22" rx="6" fill="#F2F4F6"/><text x="660" y="348.0" font-size="14" font-weight="700" fill="#9AA3AD">0%</text><text x="118" y="347.0" font-size="10.5" fill="#fff" opacity="0">①型を知る</text></svg>