<svg xmlns="http://www.w3.org/2000/svg" viewBox="0 0 680 756" font-family="Hiragino Sans, 'Noto Sans CJK JP', 'Yu Gothic', sans-serif" width="680" height="756">
<defs><linearGradient id="goalGrad" x1="0" y1="0" x2="1" y2="1"><stop offset="0" stop-color="#5B4BE0"/><stop offset="0.5" stop-color="#B14BE0"/><stop offset="1" stop-color="#FFC24B"/></linearGradient><linearGradient id="phx" x1="0" y1="0" x2="0" y2="1"><stop offset="0" stop-color="#FFE259"/><stop offset="0.5" stop-color="#FF9A00"/><stop offset="1" stop-color="#FF3D00"/></linearGradient><linearGradient id="phx2" x1="0" y1="0" x2="0" y2="1"><stop offset="0" stop-color="#FFF0A0"/><stop offset="1" stop-color="#FF7A00"/></linearGradient><linearGradient id="hen" x1="0" y1="0" x2="1" y2="1"><stop offset="0" stop-color="#37C9B0"/><stop offset="0.6" stop-color="#3DA0E8"/><stop offset="1" stop-color="#7A5BE0"/></linearGradient><linearGradient id="pcock" x1="0" y1="0" x2="0" y2="1"><stop offset="0" stop-color="#2BD0C0"/><stop offset="0.55" stop-color="#2E8FD0"/><stop offset="1" stop-color="#2E4BB0"/></linearGradient><linearGradient id="gold" x1="0" y1="0" x2="0" y2="1"><stop offset="0" stop-color="#FFF0A8"/><stop offset="0.5" stop-color="#F2C230"/><stop offset="1" stop-color="#C8901A"/></linearGradient></defs>
<rect x="0" y="0" width="680" height="756" fill="#FFFFFF"/>
<text x="20" y="34" font-size="19" font-weight="700" fill="#1F2933">古賀（wanny・新人（2026-07-01参戦））｜営業の基礎を固める（新人クローザー）</text>
<text x="20" y="52" font-size="11" fill="#67707A">大枠：指導なしで商談を一周回せる一人前のクロ…</text>
<text x="660" y="26" text-anchor="end" font-size="13" fill="#67707A">達成率</text>
<text x="462" y="50" text-anchor="end" font-size="20" font-weight="700" fill="#1D9E75">0%</text>
<rect x="470" y="38" width="150" height="12" rx="6" fill="#F2F4F6"/>
<rect x="470" y="38" width="0" height="12" rx="6" fill="#1D9E75"/>
<rect x="130" y="70" width="210" height="46" rx="10" fill="#F3F0FF" stroke="#8A7FD0" stroke-width="1.6" stroke-dasharray="5 4"/>
<polygon points="324.0,78.0 325.4,82.6 330.0,84.0 325.4,85.4 324.0,90.0 322.6,85.4 318.0,84.0 322.6,82.6" fill="#C9BEF2"/>
<text x="142" y="87" font-size="10.5" font-weight="700" fill="#8A7FD0">大枠ゴール（長期・北極星）・半年後（2026年内）</text>
<text x="142" y="104" font-size="12" font-weight="600" fill="#4B3FA0">指導なしで商談を一周回せる一人前の</text>
<text x="142" y="118" font-size="12" font-weight="600" fill="#4B3FA0">クローザーになり、自分の勝ち型を持</text>
<rect x="130" y="138" width="210" height="44" rx="10" fill="#EEF6FF" stroke="#5C90CE" stroke-width="1.6" stroke-dasharray="5 4"/>
<polygon points="324.0,146.0 325.4,150.6 330.0,152.0 325.4,153.4 324.0,158.0 322.6,153.4 318.0,152.0 322.6,150.6" fill="#B9D6F2"/>
<text x="142" y="155" font-size="10.5" font-weight="700" fill="#5C90CE">中目標（中期のマイルストーン）・2ヶ月後</text>
<text x="142" y="172" font-size="12" font-weight="600" fill="#2C5A93">指導つきで商談の一部を任され、基本</text>
<text x="142" y="186" font-size="12" font-weight="600" fill="#2C5A93">の型どおり話せる</text>
<line x1="235.0" y1="202" x2="235.0" y2="187" stroke="#5C90CE" stroke-width="2" stroke-dasharray="4 3"/>
<path d="M230.0,189 L235.0,183 L240.0,189 Z" fill="#5C90CE"/>
<text x="244.0" y="198" font-size="9.5" fill="#5C90CE">その先へ</text>
<line x1="235.0" y1="138" x2="235.0" y2="121" stroke="#8A7FD0" stroke-width="2" stroke-dasharray="4 3"/>
<path d="M230.0,123 L235.0,117 L240.0,123 Z" fill="#8A7FD0"/>
<rect x="130" y="202" width="210" height="70" rx="10" fill="url(#goalGrad)" stroke="#FFD36E" stroke-width="2.5"/>
<rect x="130" y="202" width="210" height="35.0" rx="10" fill="#FFFFFF" opacity="0.16"/>
<text x="144" y="224" font-size="12" font-weight="700" fill="#FFFFFF">ゴール</text>
<polygon points="324.0,211.0 325.4,215.6 330.0,217.0 325.4,218.4 324.0,223.0 322.6,218.4 318.0,217.0 322.6,215.6" fill="#FFF1B8"/>
<text x="144" y="244" font-size="13" font-weight="600" fill="#FFFFFF">基本の型（ヒアリング〜クロ</text>
<text x="144" y="260" font-size="13" font-weight="600" fill="#FFFFFF">ージング）を身につけ、指導</text>
<rect x="16" y="226.0" width="80" height="22" rx="11" fill="#FFF3D6" stroke="#B7791F" stroke-width="1"/>
<text x="56.0" y="241.0" text-anchor="middle" font-size="11" font-weight="700" fill="#B7791F">達成</text>
<ellipse cx="402.0" cy="244.0" rx="25.5" ry="32.3" fill="#FFF3D6"/><ellipse cx="402.0" cy="244.0" rx="25.5" ry="32.3" fill="none" stroke="#E2D2A0" stroke-width="2.4"/><circle cx="393.5" cy="238.9" r="2.5" fill="#E6D3A0"/><circle cx="410.5" cy="252.5" r="2.2" fill="#E6D3A0"/><circle cx="403.7" cy="262.7" r="2.0" fill="#E6D3A0"/>
<text x="448" y="241" font-size="13" font-weight="700" fill="#1F2933">あと2コで進化</text>
<text x="448" y="259" font-size="11" fill="#67707A">餌 0/2　累計 0/10</text>
<text x="16" y="62" font-size="10" fill="#67707A">目標時期</text>
<line x1="235.0" y1="298" x2="235.0" y2="278" stroke="#9AA3AD" stroke-width="2"/>
<path d="M230.0,280 L235.0,274 L240.0,280 Z" fill="#9AA3AD"/>
<rect x="130" y="298" width="210" height="60" rx="10" fill="#F2F4F6" stroke="#9AA3AD" stroke-width="1"/>
<circle cx="118" cy="318" r="9" fill="#9AA3AD"/>
<text x="142" y="320" font-size="14" font-weight="700" fill="#1F2933">⑤自走</text>
<text x="142" y="338" font-size="11" fill="#67707A">完了：指導なしで基本の商談を一</text>
<text x="142" y="353" font-size="11" fill="#67707A">周完遂できる</text>
<rect x="16" y="317.0" width="80" height="22" rx="11" fill="#F2F4F6" stroke="#9AA3AD" stroke-width="1"/>
<text x="56.0" y="332.0" text-anchor="middle" font-size="11" font-weight="700" fill="#9AA3AD">8月第5週</text>
<rect x="360" y="303" width="14" height="14" rx="3" fill="#fff" stroke="#9AA3AD" stroke-width="1.5"/>
<text x="382" y="314" font-size="12.5" fill="#1F2933">指導なしで1商談を最後まで担当する</text>
<rect x="360" y="321" width="14" height="14" rx="3" fill="#fff" stroke="#9AA3AD" stroke-width="1.5"/>
<text x="382" y="332" font-size="12.5" fill="#1F2933">自分の改善テーマを1つ決める</text>
<line x1="235.0" y1="384" x2="235.0" y2="364" stroke="#9AA3AD" stroke-width="2"/>
<path d="M230.0,366 L235.0,360 L240.0,366 Z" fill="#9AA3AD"/>
<rect x="130" y="384" width="210" height="60" rx="10" fill="#F2F4F6" stroke="#9AA3AD" stroke-width="1"/>
<circle cx="118" cy="404" r="9" fill="#9AA3AD"/>
<text x="142" y="406" font-size="14" font-weight="700" fill="#1F2933">④振り返り</text>
<text x="142" y="424" font-size="11" fill="#67707A">完了：うまくいった／詰まった点</text>
<text x="142" y="439" font-size="11" fill="#67707A">を言語化できる</text>
<rect x="16" y="403.0" width="80" height="22" rx="11" fill="#F2F4F6" stroke="#9AA3AD" stroke-width="1"/>
<text x="56.0" y="418.0" text-anchor="middle" font-size="11" font-weight="700" fill="#9AA3AD">8月第3週</text>
<rect x="360" y="389" width="14" height="14" rx="3" fill="#fff" stroke="#9AA3AD" stroke-width="1.5"/>
<text x="382" y="400" font-size="12.5" fill="#1F2933">週次で自分の商談を振り返る</text>
<rect x="360" y="407" width="14" height="14" rx="3" fill="#fff" stroke="#9AA3AD" stroke-width="1.5"/>
<text x="382" y="418" font-size="12.5" fill="#1F2933">つまずきポイントを先輩と確認する</text>
<line x1="235.0" y1="470" x2="235.0" y2="450" stroke="#9AA3AD" stroke-width="2"/>
<path d="M230.0,452 L235.0,446 L240.0,452 Z" fill="#9AA3AD"/>
<rect x="130" y="470" width="210" height="60" rx="10" fill="#F2F4F6" stroke="#9AA3AD" stroke-width="1"/>
<circle cx="118" cy="490" r="9" fill="#9AA3AD"/>
<text x="142" y="492" font-size="14" font-weight="700" fill="#1F2933">③実践</text>
<text x="142" y="510" font-size="11" fill="#67707A">完了：指導つきで商談の一部を担</text>
<text x="142" y="525" font-size="11" fill="#67707A">当できる</text>
<rect x="16" y="489.0" width="80" height="22" rx="11" fill="#F2F4F6" stroke="#9AA3AD" stroke-width="1"/>
<text x="56.0" y="504.0" text-anchor="middle" font-size="11" font-weight="700" fill="#9AA3AD">8月第2週</text>
<rect x="360" y="475" width="14" height="14" rx="3" fill="#fff" stroke="#9AA3AD" stroke-width="1.5"/>
<text x="382" y="486" font-size="12.5" fill="#1F2933">指導つきで商談に同席し、一部を担当する</text>
<rect x="360" y="493" width="14" height="14" rx="3" fill="#fff" stroke="#9AA3AD" stroke-width="1.5"/>
<text x="382" y="504" font-size="12.5" fill="#1F2933">商談後に良かった点・詰まった点を記録する</text>
<line x1="235.0" y1="556" x2="235.0" y2="536" stroke="#9AA3AD" stroke-width="2"/>
<path d="M230.0,538 L235.0,532 L240.0,538 Z" fill="#9AA3AD"/>
<rect x="130" y="556" width="210" height="60" rx="10" fill="#F2F4F6" stroke="#9AA3AD" stroke-width="1"/>
<circle cx="118" cy="576" r="9" fill="#9AA3AD"/>
<text x="142" y="578" font-size="14" font-weight="700" fill="#1F2933">②練習</text>
<text x="142" y="596" font-size="11" fill="#67707A">完了：ロープレで基本の型どおり</text>
<text x="142" y="611" font-size="11" fill="#67707A">話せる</text>
<rect x="16" y="575.0" width="80" height="22" rx="11" fill="#F2F4F6" stroke="#9AA3AD" stroke-width="1"/>
<text x="56.0" y="590.0" text-anchor="middle" font-size="11" font-weight="700" fill="#9AA3AD">7月第4週</text>
<rect x="360" y="561" width="14" height="14" rx="3" fill="#fff" stroke="#9AA3AD" stroke-width="1.5"/>
<text x="382" y="572" font-size="12.5" fill="#1F2933">基本トークをロープレで繰り返す</text>
<rect x="360" y="579" width="14" height="14" rx="3" fill="#fff" stroke="#9AA3AD" stroke-width="1.5"/>
<text x="382" y="590" font-size="12.5" fill="#1F2933">商品知識・よくある質問を覚える</text>
<line x1="235.0" y1="642" x2="235.0" y2="622" stroke="#9AA3AD" stroke-width="2"/>
<path d="M230.0,624 L235.0,618 L240.0,624 Z" fill="#9AA3AD"/>
<rect x="130" y="642" width="210" height="60" rx="10" fill="#FDF3E2" stroke="#EF9F27" stroke-width="2"/>
<circle cx="118" cy="662" r="9" fill="#EF9F27"/>
<text x="142" y="664" font-size="14" font-weight="700" fill="#1F2933">①型を知る</text>
<text x="142" y="682" font-size="11" fill="#67707A">完了：営業の基本フローと勝ち筋</text>
<text x="142" y="697" font-size="11" fill="#67707A">を説明できる</text>
<rect x="16" y="661.0" width="80" height="22" rx="11" fill="#FDF3E2" stroke="#EF9F27" stroke-width="1"/>
<text x="56.0" y="676.0" text-anchor="middle" font-size="11" font-weight="700" fill="#EF9F27">7月第2週</text>
<rect x="360" y="647" width="14" height="14" rx="3" fill="#fff" stroke="#9AA3AD" stroke-width="1.5"/>
<text x="382" y="658" font-size="12.5" fill="#1F2933">商談の基本フロー（挨拶〜クロージング）を覚える</text>
<rect x="360" y="665" width="14" height="14" rx="3" fill="#fff" stroke="#9AA3AD" stroke-width="1.5"/>
<text x="382" y="676" font-size="12.5" fill="#1F2933">先輩のトップ商談に同席し、型をメモする</text>
</svg>