<svg xmlns="http://www.w3.org/2000/svg" viewBox="0 0 680 700" font-family="Hiragino Sans, 'Noto Sans CJK JP', 'Yu Gothic', sans-serif" width="680" height="700">
<defs><linearGradient id="goalGrad" x1="0" y1="0" x2="1" y2="1"><stop offset="0" stop-color="#5B4BE0"/><stop offset="0.5" stop-color="#B14BE0"/><stop offset="1" stop-color="#FFC24B"/></linearGradient><linearGradient id="phx" x1="0" y1="0" x2="0" y2="1"><stop offset="0" stop-color="#FFE259"/><stop offset="0.5" stop-color="#FF9A00"/><stop offset="1" stop-color="#FF3D00"/></linearGradient><linearGradient id="phx2" x1="0" y1="0" x2="0" y2="1"><stop offset="0" stop-color="#FFF0A0"/><stop offset="1" stop-color="#FF7A00"/></linearGradient><linearGradient id="hen" x1="0" y1="0" x2="1" y2="1"><stop offset="0" stop-color="#37C9B0"/><stop offset="0.6" stop-color="#3DA0E8"/><stop offset="1" stop-color="#7A5BE0"/></linearGradient><linearGradient id="pcock" x1="0" y1="0" x2="0" y2="1"><stop offset="0" stop-color="#2BD0C0"/><stop offset="0.55" stop-color="#2E8FD0"/><stop offset="1" stop-color="#2E4BB0"/></linearGradient><linearGradient id="gold" x1="0" y1="0" x2="0" y2="1"><stop offset="0" stop-color="#FFF0A8"/><stop offset="0.5" stop-color="#F2C230"/><stop offset="1" stop-color="#C8901A"/></linearGradient></defs>
<rect x="0" y="0" width="680" height="700" fill="#FFFFFF"/>
<text x="20" y="34" font-size="13" font-weight="700" fill="#1F2933">宮腰（クローザー）｜温度感を自在に切り替え、間を作って当たり前スタンスで主導権を保つ</text>
<text x="660" y="26" text-anchor="end" font-size="13" fill="#67707A">達成率</text>
<text x="462" y="50" text-anchor="end" font-size="20" font-weight="700" fill="#1D9E75">0%</text>
<rect x="470" y="38" width="150" height="12" rx="6" fill="#F2F4F6"/>
<rect x="470" y="38" width="0" height="12" rx="6" fill="#1D9E75"/>
<rect x="130" y="70" width="210" height="81" rx="10" fill="url(#goalGrad)" stroke="#FFD36E" stroke-width="2.5"/>
<rect x="130" y="70" width="210" height="40.5" rx="10" fill="#FFFFFF" opacity="0.16"/>
<text x="144" y="90" font-size="12" font-weight="700" fill="#FFFFFF">ゴール</text>
<polygon points="324.0,79.0 325.4,83.6 330.0,85.0 325.4,86.4 324.0,91.0 322.6,86.4 318.0,85.0 322.6,83.6" fill="#FFF1B8"/>
<text x="144" y="108" font-size="13" font-weight="600" fill="#FFFFFF">自分のテンションを相手に合わせ</text>
<text x="144" y="124" font-size="13" font-weight="600" fill="#FFFFFF">て自在に切り替え、早口にならず</text>
<text x="144" y="140" font-size="13" font-weight="600" fill="#FFFFFF">『間』を作ってお客様に話させ…</text>
<rect x="16" y="99.5" width="80" height="22" rx="11" fill="#FFF3D6" stroke="#B7791F" stroke-width="1"/>
<text x="56.0" y="114.5" text-anchor="middle" font-size="11" font-weight="700" fill="#B7791F">達成</text>
<ellipse cx="402.0" cy="116.0" rx="25.5" ry="32.3" fill="#FFF3D6"/><ellipse cx="402.0" cy="116.0" rx="25.5" ry="32.3" fill="none" stroke="#E2D2A0" stroke-width="2.4"/><circle cx="393.5" cy="110.9" r="2.5" fill="#E6D3A0"/><circle cx="410.5" cy="124.5" r="2.2" fill="#E6D3A0"/><circle cx="403.7" cy="134.7" r="2.0" fill="#E6D3A0"/>
<text x="448" y="113" font-size="13" font-weight="700" fill="#1F2933">あと0コで進化</text>
<text x="448" y="131" font-size="11" fill="#67707A">餌 0/0　累計 0/4</text>
<text x="16" y="62" font-size="10" fill="#67707A">目標時期</text>
<line x1="235.0" y1="177" x2="235.0" y2="157" stroke="#9AA3AD" stroke-width="2"/>
<path d="M230.0,159 L235.0,153 L240.0,159 Z" fill="#9AA3AD"/>
<rect x="130" y="177" width="210" height="59" rx="10" fill="#F2F4F6" stroke="#9AA3AD" stroke-width="1"/>
<circle cx="118" cy="197" r="9" fill="#9AA3AD"/>
<text x="142" y="199" font-size="14" font-weight="700" fill="#1F2933">⑤自走</text>
<text x="142" y="217" font-size="11" fill="#67707A">完了：指導なしで型を回せる</text>
<rect x="16" y="195.5" width="80" height="22" rx="11" fill="#F2F4F6" stroke="#9AA3AD" stroke-width="1"/>
<text x="56.0" y="210.5" text-anchor="middle" font-size="11" font-weight="700" fill="#9AA3AD">—</text>
<line x1="235.0" y1="262" x2="235.0" y2="242" stroke="#9AA3AD" stroke-width="2"/>
<path d="M230.0,244 L235.0,238 L240.0,244 Z" fill="#9AA3AD"/>
<rect x="130" y="262" width="210" height="74" rx="10" fill="#F2F4F6" stroke="#9AA3AD" stroke-width="1"/>
<circle cx="118" cy="282" r="9" fill="#9AA3AD"/>
<text x="142" y="284" font-size="14" font-weight="700" fill="#1F2933">④振り返り</text>
<text x="142" y="302" font-size="11" fill="#67707A">完了：うまくいった／詰まった点</text>
<text x="142" y="317" font-size="11" fill="#67707A">を言語化できる</text>
<rect x="16" y="288.0" width="80" height="22" rx="11" fill="#F2F4F6" stroke="#9AA3AD" stroke-width="1"/>
<text x="56.0" y="303.0" text-anchor="middle" font-size="11" font-weight="700" fill="#9AA3AD">—</text>
<rect x="360" y="269" width="14" height="14" rx="3" fill="#fff" stroke="#9AA3AD" stroke-width="1.5"/>
<text x="382" y="280" font-size="12.5" fill="#1F2933">深い褒め（「こうだから凄いですね」）→本音引</text>
<text x="382" y="295" font-size="12.5" fill="#1F2933">き出しが効いた場面を週次で記録して再現性を…</text>
<line x1="235.0" y1="362" x2="235.0" y2="342" stroke="#9AA3AD" stroke-width="2"/>
<path d="M230.0,344 L235.0,338 L240.0,344 Z" fill="#9AA3AD"/>
<rect x="130" y="362" width="210" height="84" rx="10" fill="#FDF3E2" stroke="#EF9F27" stroke-width="2"/>
<circle cx="118" cy="382" r="9" fill="#EF9F27"/>
<text x="142" y="384" font-size="14" font-weight="700" fill="#1F2933">③実践</text>
<text x="142" y="402" font-size="11" fill="#67707A">完了：商談で意図的に型を使えて</text>
<text x="142" y="417" font-size="11" fill="#67707A">いる</text>
<rect x="16" y="393.0" width="80" height="22" rx="11" fill="#FDF3E2" stroke="#EF9F27" stroke-width="1"/>
<text x="56.0" y="408.0" text-anchor="middle" font-size="11" font-weight="700" fill="#EF9F27">—</text>
<rect x="360" y="369" width="14" height="14" rx="3" fill="#fff" stroke="#9AA3AD" stroke-width="1.5"/>
<text x="382" y="380" font-size="12.5" fill="#1F2933">不信感でお願いスタンスに陥ったら「取れていた</text>
<text x="382" y="395" font-size="12.5" fill="#1F2933">時の当たり前スタンス」を思い出して立て直す</text>
<rect x="360" y="405" width="14" height="14" rx="3" fill="#fff" stroke="#9AA3AD" stroke-width="1.5"/>
<text x="382" y="416" font-size="12.5" fill="#1F2933">初手のテンションを上げすぎず、相手の反応に合</text>
<text x="382" y="431" font-size="12.5" fill="#1F2933">わせて温度を切り替える「温度感スイッチング…</text>
<line x1="235.0" y1="472" x2="235.0" y2="452" stroke="#9AA3AD" stroke-width="2"/>
<path d="M230.0,454 L235.0,448 L240.0,454 Z" fill="#9AA3AD"/>
<rect x="130" y="472" width="210" height="74" rx="10" fill="#E7F5EF" stroke="#1D9E75" stroke-width="1"/>
<circle cx="118" cy="492" r="9" fill="#1D9E75"/>
<path d="M114,492 l3,3 l6,-7" fill="none" stroke="#fff" stroke-width="2" stroke-linecap="round" stroke-linejoin="round"/>
<text x="142" y="494" font-size="14" font-weight="700" fill="#1F2933">②練習</text>
<text x="142" y="512" font-size="11" fill="#67707A">完了：苦手ケースでも型どおり実</text>
<text x="142" y="527" font-size="11" fill="#67707A">行できる</text>
<rect x="16" y="498.0" width="80" height="22" rx="11" fill="#E7F5EF" stroke="#1D9E75" stroke-width="1"/>
<text x="56.0" y="513.0" text-anchor="middle" font-size="11" font-weight="700" fill="#1D9E75">クリア</text>
<rect x="360" y="479" width="14" height="14" rx="3" fill="#fff" stroke="#9AA3AD" stroke-width="1.5"/>
<text x="382" y="490" font-size="12.5" fill="#1F2933">早口を抑えて「間」を意識的に作り、質問→沈黙</text>
<text x="382" y="505" font-size="12.5" fill="#1F2933">で待ってお客様に話させる練習</text>
<line x1="235.0" y1="572" x2="235.0" y2="552" stroke="#9AA3AD" stroke-width="2"/>
<path d="M230.0,554 L235.0,548 L240.0,554 Z" fill="#9AA3AD"/>
<rect x="130" y="572" width="210" height="74" rx="10" fill="#E7F5EF" stroke="#1D9E75" stroke-width="1"/>
<circle cx="118" cy="592" r="9" fill="#1D9E75"/>
<path d="M114,592 l3,3 l6,-7" fill="none" stroke="#fff" stroke-width="2" stroke-linecap="round" stroke-linejoin="round"/>
<text x="142" y="594" font-size="14" font-weight="700" fill="#1F2933">①型を知る</text>
<text x="142" y="612" font-size="11" fill="#67707A">完了：自分の勝ち負け・型を言語</text>
<text x="142" y="627" font-size="11" fill="#67707A">化できる</text>
<rect x="16" y="598.0" width="80" height="22" rx="11" fill="#E7F5EF" stroke="#1D9E75" stroke-width="1"/>
<text x="56.0" y="613.0" text-anchor="middle" font-size="11" font-weight="700" fill="#1D9E75">クリア</text>
</svg>