<svg xmlns="http://www.w3.org/2000/svg" viewBox="0 0 680 782" font-family="Hiragino Sans, 'Noto Sans CJK JP', 'Yu Gothic', sans-serif" width="680" height="782">
<defs><linearGradient id="goalGrad" x1="0" y1="0" x2="1" y2="1"><stop offset="0" stop-color="#5B4BE0"/><stop offset="0.5" stop-color="#B14BE0"/><stop offset="1" stop-color="#FFC24B"/></linearGradient><linearGradient id="phx" x1="0" y1="0" x2="0" y2="1"><stop offset="0" stop-color="#FFE259"/><stop offset="0.5" stop-color="#FF9A00"/><stop offset="1" stop-color="#FF3D00"/></linearGradient><linearGradient id="phx2" x1="0" y1="0" x2="0" y2="1"><stop offset="0" stop-color="#FFF0A0"/><stop offset="1" stop-color="#FF7A00"/></linearGradient><linearGradient id="hen" x1="0" y1="0" x2="1" y2="1"><stop offset="0" stop-color="#37C9B0"/><stop offset="0.6" stop-color="#3DA0E8"/><stop offset="1" stop-color="#7A5BE0"/></linearGradient><linearGradient id="pcock" x1="0" y1="0" x2="0" y2="1"><stop offset="0" stop-color="#2BD0C0"/><stop offset="0.55" stop-color="#2E8FD0"/><stop offset="1" stop-color="#2E4BB0"/></linearGradient><linearGradient id="gold" x1="0" y1="0" x2="0" y2="1"><stop offset="0" stop-color="#FFF0A8"/><stop offset="0.5" stop-color="#F2C230"/><stop offset="1" stop-color="#C8901A"/></linearGradient></defs>
<rect x="0" y="0" width="680" height="782" fill="#FFFFFF"/>
<text x="20" y="34" font-size="19" font-weight="700" fill="#1F2933">岡野（wanny）｜契約を安定させる（クローザー）</text>
<text x="20" y="52" font-size="11" fill="#67707A">中長期：自分の型を安定させ、wannyメンバ…</text>
<text x="660" y="26" text-anchor="end" font-size="13" fill="#67707A">達成率</text>
<text x="462" y="50" text-anchor="end" font-size="20" font-weight="700" fill="#1D9E75">13%</text>
<rect x="470" y="38" width="150" height="12" rx="6" fill="#F2F4F6"/>
<rect x="470" y="38" width="20" height="12" rx="6" fill="#1D9E75"/>
<rect x="130" y="70" width="210" height="46" rx="10" fill="#F3F0FF" stroke="#B9AEEA" stroke-width="1.6" stroke-dasharray="5 4"/>
<polygon points="324.0,78.0 325.4,82.6 330.0,84.0 325.4,85.4 324.0,90.0 322.6,85.4 318.0,84.0 322.6,82.6" fill="#C9BEF2"/>
<text x="142" y="87" font-size="10.5" font-weight="700" fill="#6357CC">中長期ゴール（北極星）・半年後（2026年内）</text>
<text x="142" y="104" font-size="12" font-weight="600" fill="#4B3FA0">自分の型を安定させ、wannyメン</text>
<text x="142" y="118" font-size="12" font-weight="600" fill="#4B3FA0">バーの成約を底上げできる管理者にな</text>
<line x1="235.0" y1="138" x2="235.0" y2="121" stroke="#B9AEEA" stroke-width="2" stroke-dasharray="4 3"/>
<path d="M230.0,123 L235.0,117 L240.0,123 Z" fill="#B9AEEA"/>
<text x="244.0" y="132" font-size="9.5" fill="#8A7FD0">その先へ</text>
<rect x="130" y="138" width="210" height="70" rx="10" fill="url(#goalGrad)" stroke="#FFD36E" stroke-width="2.5"/>
<rect x="130" y="138" width="210" height="35.0" rx="10" fill="#FFFFFF" opacity="0.16"/>
<text x="144" y="160" font-size="12" font-weight="700" fill="#FFFFFF">ゴール</text>
<polygon points="324.0,147.0 325.4,151.6 330.0,153.0 325.4,154.4 324.0,159.0 322.6,154.4 318.0,153.0 322.6,151.6" fill="#FFF1B8"/>
<text x="144" y="180" font-size="13" font-weight="600" fill="#FFFFFF">客層を問わず自分の型で契約</text>
<text x="144" y="196" font-size="13" font-weight="600" fill="#FFFFFF">まで運び、成約が安定する</text>
<rect x="16" y="162.0" width="80" height="22" rx="11" fill="#FFF3D6" stroke="#B7791F" stroke-width="1"/>
<text x="56.0" y="177.0" text-anchor="middle" font-size="11" font-weight="700" fill="#B7791F">達成</text>
<line x1="395.2" y1="202.1" x2="395.2" y2="212.3" stroke="#F2A30D" stroke-width="3.4" stroke-linecap="round"/><line x1="408.8" y1="202.1" x2="408.8" y2="212.3" stroke="#F2A30D" stroke-width="3.4" stroke-linecap="round"/><circle cx="402.0" cy="183.4" r="22.1" fill="#FFD23F"/><ellipse cx="388.4" cy="185.1" rx="7.6" ry="11.9" fill="#F4C12B"/><circle cx="402.0" cy="164.7" r="13.6" fill="#FFD23F"/><polygon points="413.9,161.0 424.1,164.7 413.9,168.4" fill="#F2870D"/><circle cx="407.1" cy="161.3" r="3.6" fill="#FFFFFF"/><circle cx="407.6" cy="161.3" r="2.0" fill="#33270D"/><path d="M400.3,152.8Q396.9,144.3 403.7,144.3" fill="none" stroke="#F4C12B" stroke-width="2.7" stroke-linecap="round" stroke-linejoin="round"/>
<text x="448" y="177" font-size="13" font-weight="700" fill="#1F2933">あと2コで進化</text>
<text x="448" y="195" font-size="11" fill="#67707A">餌 0/2　累計 2/15</text>
<text x="16" y="62" font-size="10" fill="#67707A">目標時期</text>
<line x1="235.0" y1="234" x2="235.0" y2="214" stroke="#9AA3AD" stroke-width="2"/>
<path d="M230.0,216 L235.0,210 L240.0,216 Z" fill="#9AA3AD"/>
<rect x="130" y="234" width="210" height="114" rx="10" fill="#F2F4F6" stroke="#9AA3AD" stroke-width="1"/>
<circle cx="118" cy="254" r="9" fill="#9AA3AD"/>
<text x="142" y="256" font-size="14" font-weight="700" fill="#1F2933">⑤自走</text>
<text x="142" y="274" font-size="11" fill="#67707A">完了：指導なしで型を回し、wa</text>
<text x="142" y="289" font-size="11" fill="#67707A">nyの標準トークに言語化できる</text>
<rect x="16" y="280.0" width="80" height="22" rx="11" fill="#F2F4F6" stroke="#9AA3AD" stroke-width="1"/>
<text x="56.0" y="295.0" text-anchor="middle" font-size="11" font-weight="700" fill="#9AA3AD">7月第4週</text>
<rect x="360" y="239" width="14" height="14" rx="3" fill="#fff" stroke="#9AA3AD" stroke-width="1.5"/>
<text x="382" y="250" font-size="12.5" fill="#1F2933">苦手客層を指名で担当する</text>
<rect x="360" y="257" width="14" height="14" rx="3" fill="#fff" stroke="#9AA3AD" stroke-width="1.5"/>
<text x="382" y="268" font-size="12.5" fill="#1F2933">自分の型を後輩に共有する</text>
<rect x="360" y="275" width="14" height="14" rx="3" fill="#fff" stroke="#9AA3AD" stroke-width="1.5"/>
<text x="382" y="286" font-size="12.5" fill="#1F2933">勝ち型をwannyの標準トークに言語化・共有する</text>
<rect x="360" y="293" width="14" height="14" rx="3" fill="#fff" stroke="#9AA3AD" stroke-width="1.5"/>
<text x="382" y="304" font-size="12.5" fill="#1F2933">メンバーのロープレを主催し、教えて詰まった点を自分の再発見に使う</text>
<rect x="360" y="311" width="14" height="14" rx="3" fill="#fff" stroke="#9AA3AD" stroke-width="1.5"/>
<text x="382" y="322" font-size="12.5" fill="#1F2933">【管理】wannyメンバーと1on1し、各人の今週フォーカスを握る</text>
<line x1="235.0" y1="374" x2="235.0" y2="354" stroke="#9AA3AD" stroke-width="2"/>
<path d="M230.0,356 L235.0,350 L240.0,356 Z" fill="#9AA3AD"/>
<rect x="130" y="374" width="210" height="96" rx="10" fill="#F2F4F6" stroke="#9AA3AD" stroke-width="1"/>
<circle cx="118" cy="394" r="9" fill="#9AA3AD"/>
<text x="142" y="396" font-size="14" font-weight="700" fill="#1F2933">④振り返り</text>
<text x="142" y="414" font-size="11" fill="#67707A">完了：失注の共通要因を抽出し、</text>
<text x="142" y="429" font-size="11" fill="#67707A">wany全体に展開できる</text>
<rect x="16" y="411.0" width="80" height="22" rx="11" fill="#F2F4F6" stroke="#9AA3AD" stroke-width="1"/>
<text x="56.0" y="426.0" text-anchor="middle" font-size="11" font-weight="700" fill="#9AA3AD">7月第3週</text>
<rect x="360" y="379" width="14" height="14" rx="3" fill="#fff" stroke="#9AA3AD" stroke-width="1.5"/>
<text x="382" y="390" font-size="12.5" fill="#1F2933">週次で成約率の推移を確認</text>
<rect x="360" y="397" width="14" height="14" rx="3" fill="#fff" stroke="#9AA3AD" stroke-width="1.5"/>
<text x="382" y="408" font-size="12.5" fill="#1F2933">失注の共通要因を抽出する</text>
<rect x="360" y="415" width="14" height="14" rx="3" fill="#fff" stroke="#9AA3AD" stroke-width="1.5"/>
<text x="382" y="426" font-size="12.5" fill="#1F2933">wannyメンバーの失注商談を1件レビューし、要因を自分の型と照合</text>
<rect x="360" y="433" width="14" height="14" rx="3" fill="#fff" stroke="#9AA3AD" stroke-width="1.5"/>
<text x="382" y="444" font-size="12.5" fill="#1F2933">【管理】wany全体の成約率を把握し、底上げ対象メンバーを決める</text>
<line x1="235.0" y1="496" x2="235.0" y2="476" stroke="#9AA3AD" stroke-width="2"/>
<path d="M230.0,478 L235.0,472 L240.0,478 Z" fill="#9AA3AD"/>
<rect x="130" y="496" width="210" height="60" rx="10" fill="#F2F4F6" stroke="#9AA3AD" stroke-width="1"/>
<circle cx="118" cy="516" r="9" fill="#9AA3AD"/>
<text x="142" y="518" font-size="14" font-weight="700" fill="#1F2933">③実践</text>
<text x="142" y="536" font-size="11" fill="#67707A">完了：商談で型を意図的に使えて</text>
<text x="142" y="551" font-size="11" fill="#67707A">いる</text>
<rect x="16" y="515.0" width="80" height="22" rx="11" fill="#F2F4F6" stroke="#9AA3AD" stroke-width="1"/>
<text x="56.0" y="530.0" text-anchor="middle" font-size="11" font-weight="700" fill="#9AA3AD">7月第1週</text>
<rect x="360" y="501" width="14" height="14" rx="3" fill="#fff" stroke="#9AA3AD" stroke-width="1.5"/>
<text x="382" y="512" font-size="12.5" fill="#1F2933">商談前に型の要点を確認する</text>
<rect x="360" y="519" width="14" height="14" rx="3" fill="#fff" stroke="#9AA3AD" stroke-width="1.5"/>
<text x="382" y="530" font-size="12.5" fill="#1F2933">ネック処理を意図的に試す</text>
<line x1="235.0" y1="582" x2="235.0" y2="562" stroke="#9AA3AD" stroke-width="2"/>
<path d="M230.0,564 L235.0,558 L240.0,564 Z" fill="#9AA3AD"/>
<rect x="130" y="582" width="210" height="60" rx="10" fill="#FDF3E2" stroke="#EF9F27" stroke-width="2"/>
<circle cx="118" cy="602" r="9" fill="#EF9F27"/>
<text x="142" y="604" font-size="14" font-weight="700" fill="#1F2933">②練習</text>
<text x="142" y="622" font-size="11" fill="#67707A">完了：苦手ケースでも型どおり切</text>
<text x="142" y="637" font-size="11" fill="#67707A">り返せる</text>
<rect x="16" y="601.0" width="80" height="22" rx="11" fill="#FEE2E2" stroke="#DC2626" stroke-width="1"/>
<text x="56.0" y="616.0" text-anchor="middle" font-size="11" font-weight="700" fill="#DC2626">⚠6月第4週</text>
<rect x="360" y="587" width="14" height="14" rx="3" fill="#fff" stroke="#9AA3AD" stroke-width="1.5"/>
<text x="382" y="598" font-size="12.5" fill="#1F2933">苦手ケースの切り返しをロープレ</text>
<rect x="360" y="605" width="14" height="14" rx="3" fill="#fff" stroke="#9AA3AD" stroke-width="1.5"/>
<text x="382" y="616" font-size="12.5" fill="#1F2933">トップ商談の録音を聞く</text>
<line x1="235.0" y1="668" x2="235.0" y2="648" stroke="#9AA3AD" stroke-width="2"/>
<path d="M230.0,650 L235.0,644 L240.0,650 Z" fill="#9AA3AD"/>
<rect x="130" y="668" width="210" height="60" rx="10" fill="#E7F5EF" stroke="#1D9E75" stroke-width="1"/>
<circle cx="118" cy="688" r="9" fill="#1D9E75"/>
<path d="M114,688 l3,3 l6,-7" fill="none" stroke="#fff" stroke-width="2" stroke-linecap="round" stroke-linejoin="round"/>
<text x="142" y="690" font-size="14" font-weight="700" fill="#1F2933">①型を知る</text>
<text x="142" y="708" font-size="11" fill="#67707A">完了：自分の勝ち負けを言語化で</text>
<text x="142" y="723" font-size="11" fill="#67707A">きる</text>
<rect x="16" y="687.0" width="80" height="22" rx="11" fill="#E7F5EF" stroke="#1D9E75" stroke-width="1"/>
<text x="56.0" y="702.0" text-anchor="middle" font-size="11" font-weight="700" fill="#1D9E75">クリア</text>
<rect x="360" y="673" width="14" height="14" rx="3" fill="#1D9E75" stroke="#1D9E75" stroke-width="1.5"/>
<path d="M363,680 l3,3 l5,-6" fill="none" stroke="#fff" stroke-width="2" stroke-linecap="round" stroke-linejoin="round"/>
<text x="382" y="684" font-size="12.5" fill="#67707A" text-decoration="line-through">直近の成約・失注を5件ずつ振り返る</text>
<rect x="360" y="691" width="14" height="14" rx="3" fill="#1D9E75" stroke="#1D9E75" stroke-width="1.5"/>
<path d="M363,698 l3,3 l5,-6" fill="none" stroke="#fff" stroke-width="2" stroke-linecap="round" stroke-linejoin="round"/>
<text x="382" y="702" font-size="12.5" fill="#67707A" text-decoration="line-through">勝ち／負けパターンを言語化する</text>
<rect x="196" y="44" width="176" height="22" rx="11" fill="#DC2626"/>
<text x="284.0" y="59" text-anchor="middle" font-size="12" font-weight="700" fill="#FFFFFF">⚠ 期限に遅れあり</text>
</svg>