<svg xmlns="http://www.w3.org/2000/svg" viewBox="0 0 680 660" font-family="Hiragino Sans, 'Noto Sans CJK JP', 'Yu Gothic', sans-serif" width="680" height="660">
<rect x="0" y="0" width="680" height="660" fill="#FFFFFF"/>
<text x="20" y="34" font-size="19" font-weight="700" fill="#1F2933">岡野（wanny）｜契約を安定させる（クローザー）</text>
<text x="660" y="26" text-anchor="end" font-size="13" fill="#67707A">達成率</text>
<text x="462" y="50" text-anchor="end" font-size="20" font-weight="700" fill="#1D9E75">42%</text>
<rect x="470" y="38" width="150" height="12" rx="6" fill="#F2F4F6"/>
<rect x="470" y="38" width="63" height="12" rx="6" fill="#1D9E75"/>
<rect x="130" y="70" width="210" height="70" rx="10" fill="#EEECFA" stroke="#6357CC" stroke-width="2"/>
<text x="144" y="92" font-size="12" font-weight="700" fill="#6357CC">ゴール</text>
<text x="144" y="112" font-size="13" fill="#1F2933">客層を問わず自分の型で契約</text>
<text x="144" y="128" font-size="13" fill="#1F2933">まで運び、成約が安定する</text>
<rect x="20" y="94.0" width="58" height="22" rx="11" fill="#EEECFA" stroke="#6357CC" stroke-width="1"/>
<text x="49.0" y="109.0" text-anchor="middle" font-size="11" font-weight="700" fill="#6357CC">達成</text>
<line x1="235.0" y1="166" x2="235.0" y2="146" stroke="#9AA3AD" stroke-width="2"/>
<path d="M230.0,148 L235.0,142 L240.0,148 Z" fill="#9AA3AD"/>
<rect x="130" y="166" width="210" height="60" rx="10" fill="#F2F4F6" stroke="#9AA3AD" stroke-width="1"/>
<circle cx="118" cy="186" r="9" fill="#9AA3AD"/>
<text x="142" y="188" font-size="14" font-weight="700" fill="#1F2933">⑤自走</text>
<text x="142" y="206" font-size="11" fill="#67707A">完了：指導なしで型を回し、人に</text>
<text x="142" y="221" font-size="11" fill="#67707A">教えられる</text>
<rect x="20" y="185.0" width="58" height="22" rx="11" fill="#F2F4F6" stroke="#9AA3AD" stroke-width="1"/>
<text x="49.0" y="200.0" text-anchor="middle" font-size="11" font-weight="700" fill="#9AA3AD">＋1週</text>
<rect x="360" y="171" width="14" height="14" rx="3" fill="#fff" stroke="#9AA3AD" stroke-width="1.5"/>
<text x="382" y="182" font-size="12.5" fill="#1F2933">メンバーのロープレを主催し再発見に使う</text>
<rect x="360" y="189" width="14" height="14" rx="3" fill="#fff" stroke="#9AA3AD" stroke-width="1.5"/>
<text x="382" y="200" font-size="12.5" fill="#1F2933">勝ち型をwannyの標準トークに言語化・共有</text>
<line x1="235.0" y1="252" x2="235.0" y2="232" stroke="#9AA3AD" stroke-width="2"/>
<path d="M230.0,234 L235.0,228 L240.0,234 Z" fill="#9AA3AD"/>
<rect x="130" y="252" width="210" height="60" rx="10" fill="#F2F4F6" stroke="#9AA3AD" stroke-width="1"/>
<circle cx="118" cy="272" r="9" fill="#9AA3AD"/>
<text x="142" y="274" font-size="14" font-weight="700" fill="#1F2933">④振り返り</text>
<text x="142" y="292" font-size="11" fill="#67707A">完了：失注の共通要因を自分で抽</text>
<text x="142" y="307" font-size="11" fill="#67707A">出できる</text>
<rect x="20" y="271.0" width="58" height="22" rx="11" fill="#F2F4F6" stroke="#9AA3AD" stroke-width="1"/>
<text x="49.0" y="286.0" text-anchor="middle" font-size="11" font-weight="700" fill="#9AA3AD">＋2週</text>
<rect x="360" y="257" width="14" height="14" rx="3" fill="#fff" stroke="#9AA3AD" stroke-width="1.5"/>
<text x="382" y="268" font-size="12.5" fill="#1F2933">失注の共通要因を抽出する</text>
<rect x="360" y="275" width="14" height="14" rx="3" fill="#fff" stroke="#9AA3AD" stroke-width="1.5"/>
<text x="382" y="286" font-size="12.5" fill="#1F2933">次の一手を言語化する</text>
<line x1="235.0" y1="338" x2="235.0" y2="318" stroke="#9AA3AD" stroke-width="2"/>
<path d="M230.0,320 L235.0,314 L240.0,320 Z" fill="#9AA3AD"/>
<rect x="130" y="338" width="210" height="60" rx="10" fill="#F2F4F6" stroke="#9AA3AD" stroke-width="1"/>
<circle cx="118" cy="358" r="9" fill="#9AA3AD"/>
<text x="142" y="360" font-size="14" font-weight="700" fill="#1F2933">③実践</text>
<text x="142" y="378" font-size="11" fill="#67707A">完了：商談で型を意図的に使えて</text>
<text x="142" y="393" font-size="11" fill="#67707A">いる</text>
<rect x="20" y="357.0" width="58" height="22" rx="11" fill="#F2F4F6" stroke="#9AA3AD" stroke-width="1"/>
<text x="49.0" y="372.0" text-anchor="middle" font-size="11" font-weight="700" fill="#9AA3AD">＋3週</text>
<rect x="360" y="343" width="14" height="14" rx="3" fill="#fff" stroke="#9AA3AD" stroke-width="1.5"/>
<text x="382" y="354" font-size="12.5" fill="#1F2933">商談前に型の要点を確認する</text>
<rect x="360" y="361" width="14" height="14" rx="3" fill="#fff" stroke="#9AA3AD" stroke-width="1.5"/>
<text x="382" y="372" font-size="12.5" fill="#1F2933">ネック処理を意図的に試す</text>
<line x1="235.0" y1="424" x2="235.0" y2="404" stroke="#9AA3AD" stroke-width="2"/>
<path d="M230.0,406 L235.0,400 L240.0,406 Z" fill="#9AA3AD"/>
<rect x="130" y="424" width="210" height="78" rx="10" fill="#FDF3E2" stroke="#EF9F27" stroke-width="2"/>
<circle cx="118" cy="444" r="9" fill="#EF9F27"/>
<text x="142" y="446" font-size="14" font-weight="700" fill="#1F2933">②練習</text>
<text x="142" y="464" font-size="11" fill="#67707A">完了：苦手ケースでも型どおり切</text>
<text x="142" y="479" font-size="11" fill="#67707A">り返せる</text>
<rect x="20" y="452.0" width="58" height="22" rx="11" fill="#FDF3E2" stroke="#EF9F27" stroke-width="1"/>
<text x="49.0" y="467.0" text-anchor="middle" font-size="11" font-weight="700" fill="#EF9F27">今</text>
<rect x="360" y="429" width="14" height="14" rx="3" fill="#1D9E75" stroke="#1D9E75" stroke-width="1.5"/>
<path d="M363,436 l3,3 l5,-6" fill="none" stroke="#fff" stroke-width="2" stroke-linecap="round" stroke-linejoin="round"/>
<text x="382" y="440" font-size="12.5" fill="#67707A" text-decoration="line-through">録音して聞き返す</text>
<rect x="360" y="447" width="14" height="14" rx="3" fill="#1D9E75" stroke="#1D9E75" stroke-width="1.5"/>
<path d="M363,454 l3,3 l5,-6" fill="none" stroke="#fff" stroke-width="2" stroke-linecap="round" stroke-linejoin="round"/>
<text x="382" y="458" font-size="12.5" fill="#67707A" text-decoration="line-through">上司と週2回ロープレ</text>
<rect x="360" y="465" width="14" height="14" rx="3" fill="#fff" stroke="#9AA3AD" stroke-width="1.5"/>
<text x="382" y="476" font-size="12.5" fill="#1F2933">苦手ケースの切り返しをロープレ</text>
<line x1="235.0" y1="528" x2="235.0" y2="508" stroke="#9AA3AD" stroke-width="2"/>
<path d="M230.0,510 L235.0,504 L240.0,510 Z" fill="#9AA3AD"/>
<rect x="130" y="528" width="210" height="78" rx="10" fill="#E7F5EF" stroke="#1D9E75" stroke-width="1"/>
<circle cx="118" cy="548" r="9" fill="#1D9E75"/>
<path d="M114,548 l3,3 l6,-7" fill="none" stroke="#fff" stroke-width="2" stroke-linecap="round" stroke-linejoin="round"/>
<text x="142" y="550" font-size="14" font-weight="700" fill="#1F2933">①型を知る</text>
<text x="142" y="568" font-size="11" fill="#67707A">完了：自分の勝ち負けを言語化で</text>
<text x="142" y="583" font-size="11" fill="#67707A">きる</text>
<rect x="20" y="556.0" width="58" height="22" rx="11" fill="#E7F5EF" stroke="#1D9E75" stroke-width="1"/>
<text x="49.0" y="571.0" text-anchor="middle" font-size="11" font-weight="700" fill="#1D9E75">クリア</text>
<rect x="360" y="533" width="14" height="14" rx="3" fill="#1D9E75" stroke="#1D9E75" stroke-width="1.5"/>
<path d="M363,540 l3,3 l5,-6" fill="none" stroke="#fff" stroke-width="2" stroke-linecap="round" stroke-linejoin="round"/>
<text x="382" y="544" font-size="12.5" fill="#67707A" text-decoration="line-through">直近の成約・失注を5件ずつ振り返る</text>
<rect x="360" y="551" width="14" height="14" rx="3" fill="#1D9E75" stroke="#1D9E75" stroke-width="1.5"/>
<path d="M363,558 l3,3 l5,-6" fill="none" stroke="#fff" stroke-width="2" stroke-linecap="round" stroke-linejoin="round"/>
<text x="382" y="562" font-size="12.5" fill="#67707A" text-decoration="line-through">勝ち／負けパターンを言語化する</text>
<rect x="360" y="569" width="14" height="14" rx="3" fill="#1D9E75" stroke="#1D9E75" stroke-width="1.5"/>
<path d="M363,576 l3,3 l5,-6" fill="none" stroke="#fff" stroke-width="2" stroke-linecap="round" stroke-linejoin="round"/>
<text x="382" y="580" font-size="12.5" fill="#67707A" text-decoration="line-through">型を本／動画で学ぶ</text>
</svg>