<svg xmlns="http://www.w3.org/2000/svg" viewBox="0 0 680 755" font-family="Hiragino Sans, 'Noto Sans CJK JP', 'Yu Gothic', sans-serif" width="680" height="755">
<defs><linearGradient id="goalGrad" x1="0" y1="0" x2="1" y2="1"><stop offset="0" stop-color="#5B4BE0"/><stop offset="0.5" stop-color="#B14BE0"/><stop offset="1" stop-color="#FFC24B"/></linearGradient><linearGradient id="phx" x1="0" y1="0" x2="0" y2="1"><stop offset="0" stop-color="#FFE259"/><stop offset="0.5" stop-color="#FF9A00"/><stop offset="1" stop-color="#FF3D00"/></linearGradient><linearGradient id="phx2" x1="0" y1="0" x2="0" y2="1"><stop offset="0" stop-color="#FFF0A0"/><stop offset="1" stop-color="#FF7A00"/></linearGradient><linearGradient id="hen" x1="0" y1="0" x2="1" y2="1"><stop offset="0" stop-color="#37C9B0"/><stop offset="0.6" stop-color="#3DA0E8"/><stop offset="1" stop-color="#7A5BE0"/></linearGradient><linearGradient id="pcock" x1="0" y1="0" x2="0" y2="1"><stop offset="0" stop-color="#2BD0C0"/><stop offset="0.55" stop-color="#2E8FD0"/><stop offset="1" stop-color="#2E4BB0"/></linearGradient><linearGradient id="gold" x1="0" y1="0" x2="0" y2="1"><stop offset="0" stop-color="#FFF0A8"/><stop offset="0.5" stop-color="#F2C230"/><stop offset="1" stop-color="#C8901A"/></linearGradient></defs>
<rect x="0" y="0" width="680" height="755" fill="#FFFFFF"/>
<text x="20" y="34" font-size="13" font-weight="700" fill="#1F2933">藤江（育成）（育成）｜「会いたい」と思われる自然な対話で、キャンセルされないアポをつくる（アポインター育成）</text>
<text x="660" y="26" text-anchor="end" font-size="13" fill="#67707A">達成率</text>
<text x="462" y="50" text-anchor="end" font-size="20" font-weight="700" fill="#1D9E75">0%</text>
<rect x="470" y="38" width="150" height="12" rx="6" fill="#F2F4F6"/>
<rect x="470" y="38" width="0" height="12" rx="6" fill="#1D9E75"/>
<rect x="130" y="70" width="210" height="81" rx="10" fill="url(#goalGrad)" stroke="#FFD36E" stroke-width="2.5"/>
<rect x="130" y="70" width="210" height="40.5" rx="10" fill="#FFFFFF" opacity="0.16"/>
<text x="144" y="90" font-size="12" font-weight="700" fill="#FFFFFF">ゴール</text>
<polygon points="324.0,79.0 325.4,83.6 330.0,85.0 325.4,86.4 324.0,91.0 322.6,86.4 318.0,85.0 322.6,83.6" fill="#FFF1B8"/>
<text x="144" y="108" font-size="13" font-weight="600" fill="#FFFFFF">営業をしている印象ではなく『話</text>
<text x="144" y="124" font-size="13" font-weight="600" fill="#FFFFFF">を聞いてもらえてよかった』と感</text>
<text x="144" y="140" font-size="13" font-weight="600" fill="#FFFFFF">じてもらえる会話ができ、相手…</text>
<rect x="16" y="99.5" width="80" height="22" rx="11" fill="#FFF3D6" stroke="#B7791F" stroke-width="1"/>
<text x="56.0" y="114.5" text-anchor="middle" font-size="11" font-weight="700" fill="#B7791F">達成</text>
<ellipse cx="402.0" cy="116.0" rx="25.5" ry="32.3" fill="#FFF3D6"/><ellipse cx="402.0" cy="116.0" rx="25.5" ry="32.3" fill="none" stroke="#E2D2A0" stroke-width="2.4"/><circle cx="393.5" cy="110.9" r="2.5" fill="#E6D3A0"/><circle cx="410.5" cy="124.5" r="2.2" fill="#E6D3A0"/><circle cx="403.7" cy="134.7" r="2.0" fill="#E6D3A0"/>
<text x="448" y="113" font-size="13" font-weight="700" fill="#1F2933">あと2コで進化</text>
<text x="448" y="131" font-size="11" fill="#67707A">餌 0/2　累計 0/10</text>
<text x="16" y="62" font-size="10" fill="#67707A">目標時期</text>
<line x1="235.0" y1="177" x2="235.0" y2="157" stroke="#9AA3AD" stroke-width="2"/>
<path d="M230.0,159 L235.0,153 L240.0,159 Z" fill="#9AA3AD"/>
<rect x="130" y="177" width="210" height="84" rx="10" fill="#F2F4F6" stroke="#9AA3AD" stroke-width="1"/>
<circle cx="118" cy="197" r="9" fill="#9AA3AD"/>
<text x="142" y="199" font-size="14" font-weight="700" fill="#1F2933">⑤自走</text>
<text x="142" y="217" font-size="11" fill="#67707A">完了：指導なしで型を回せる</text>
<rect x="16" y="208.0" width="80" height="22" rx="11" fill="#F2F4F6" stroke="#9AA3AD" stroke-width="1"/>
<text x="56.0" y="223.0" text-anchor="middle" font-size="11" font-weight="700" fill="#9AA3AD">—</text>
<rect x="360" y="184" width="14" height="14" rx="3" fill="#fff" stroke="#9AA3AD" stroke-width="1.5"/>
<text x="382" y="195" font-size="12.5" fill="#1F2933">自分なりの「キャンセルされにくいアポの型」を</text>
<text x="382" y="210" font-size="12.5" fill="#1F2933">言語化し、毎回その型を再現する</text>
<rect x="360" y="220" width="14" height="14" rx="3" fill="#fff" stroke="#9AA3AD" stroke-width="1.5"/>
<text x="382" y="231" font-size="12.5" fill="#1F2933">毎日の終わりに「今日一番自然に会話できた場面</text>
<text x="382" y="246" font-size="12.5" fill="#1F2933">」と「営業感が出た場面」を振り返る</text>
<line x1="235.0" y1="287" x2="235.0" y2="267" stroke="#9AA3AD" stroke-width="2"/>
<path d="M230.0,269 L235.0,263 L240.0,269 Z" fill="#9AA3AD"/>
<rect x="130" y="287" width="210" height="84" rx="10" fill="#F2F4F6" stroke="#9AA3AD" stroke-width="1"/>
<circle cx="118" cy="307" r="9" fill="#9AA3AD"/>
<text x="142" y="309" font-size="14" font-weight="700" fill="#1F2933">④振り返り</text>
<text x="142" y="327" font-size="11" fill="#67707A">完了：うまくいった／詰まった点</text>
<text x="142" y="342" font-size="11" fill="#67707A">を言語化できる</text>
<rect x="16" y="318.0" width="80" height="22" rx="11" fill="#F2F4F6" stroke="#9AA3AD" stroke-width="1"/>
<text x="56.0" y="333.0" text-anchor="middle" font-size="11" font-weight="700" fill="#9AA3AD">—</text>
<rect x="360" y="294" width="14" height="14" rx="3" fill="#fff" stroke="#9AA3AD" stroke-width="1.5"/>
<text x="382" y="305" font-size="12.5" fill="#1F2933">キャンセルされなかった案件との違いを言語化し</text>
<text x="382" y="320" font-size="12.5" fill="#1F2933">、自分の成功パターンをまとめる</text>
<rect x="360" y="330" width="14" height="14" rx="3" fill="#fff" stroke="#9AA3AD" stroke-width="1.5"/>
<text x="382" y="341" font-size="12.5" fill="#1F2933">キャンセルになった案件を振り返り、「予約した</text>
<text x="382" y="356" font-size="12.5" fill="#1F2933">理由が弱かった点」を整理する</text>
<line x1="235.0" y1="397" x2="235.0" y2="377" stroke="#9AA3AD" stroke-width="2"/>
<path d="M230.0,379 L235.0,373 L240.0,379 Z" fill="#9AA3AD"/>
<rect x="130" y="397" width="210" height="84" rx="10" fill="#F2F4F6" stroke="#9AA3AD" stroke-width="1"/>
<circle cx="118" cy="417" r="9" fill="#9AA3AD"/>
<text x="142" y="419" font-size="14" font-weight="700" fill="#1F2933">③実践</text>
<text x="142" y="437" font-size="11" fill="#67707A">完了：商談で意図的に型を使えて</text>
<text x="142" y="452" font-size="11" fill="#67707A">いる</text>
<rect x="16" y="428.0" width="80" height="22" rx="11" fill="#F2F4F6" stroke="#9AA3AD" stroke-width="1"/>
<text x="56.0" y="443.0" text-anchor="middle" font-size="11" font-weight="700" fill="#9AA3AD">—</text>
<rect x="360" y="404" width="14" height="14" rx="3" fill="#fff" stroke="#9AA3AD" stroke-width="1.5"/>
<text x="382" y="415" font-size="12.5" fill="#1F2933">面談を提案する前に、相手が「だから相談したい</text>
<text x="382" y="430" font-size="12.5" fill="#1F2933">」と思える状態をつくってから案内する</text>
<rect x="360" y="440" width="14" height="14" rx="3" fill="#fff" stroke="#9AA3AD" stroke-width="1.5"/>
<text x="382" y="451" font-size="12.5" fill="#1F2933">アポイント確定時に、相手自身の言葉で「面談で</text>
<text x="382" y="466" font-size="12.5" fill="#1F2933">確認したいこと」を話してもらう</text>
<line x1="235.0" y1="507" x2="235.0" y2="487" stroke="#9AA3AD" stroke-width="2"/>
<path d="M230.0,489 L235.0,483 L240.0,489 Z" fill="#9AA3AD"/>
<rect x="130" y="507" width="210" height="84" rx="10" fill="#F2F4F6" stroke="#9AA3AD" stroke-width="1"/>
<circle cx="118" cy="527" r="9" fill="#9AA3AD"/>
<text x="142" y="529" font-size="14" font-weight="700" fill="#1F2933">②練習</text>
<text x="142" y="547" font-size="11" fill="#67707A">完了：苦手ケースでも型どおり実</text>
<text x="142" y="562" font-size="11" fill="#67707A">行できる</text>
<rect x="16" y="538.0" width="80" height="22" rx="11" fill="#F2F4F6" stroke="#9AA3AD" stroke-width="1"/>
<text x="56.0" y="553.0" text-anchor="middle" font-size="11" font-weight="700" fill="#9AA3AD">—</text>
<rect x="360" y="514" width="14" height="14" rx="3" fill="#fff" stroke="#9AA3AD" stroke-width="1.5"/>
<text x="382" y="525" font-size="12.5" fill="#1F2933">相手の回答に対して、自分の話ではなく「もう一</text>
<text x="382" y="540" font-size="12.5" fill="#1F2933">段深掘りする質問」を意識して行う</text>
<rect x="360" y="550" width="14" height="14" rx="3" fill="#fff" stroke="#9AA3AD" stroke-width="1.5"/>
<text x="382" y="561" font-size="12.5" fill="#1F2933">ロープレで、雑談からヒアリングへ自然につなげ</text>
<text x="382" y="576" font-size="12.5" fill="#1F2933">る練習を繰り返す</text>
<line x1="235.0" y1="617" x2="235.0" y2="597" stroke="#9AA3AD" stroke-width="2"/>
<path d="M230.0,599 L235.0,593 L240.0,599 Z" fill="#9AA3AD"/>
<rect x="130" y="617" width="210" height="84" rx="10" fill="#FDF3E2" stroke="#EF9F27" stroke-width="2"/>
<circle cx="118" cy="637" r="9" fill="#EF9F27"/>
<text x="142" y="639" font-size="14" font-weight="700" fill="#1F2933">①型を知る</text>
<text x="142" y="657" font-size="11" fill="#67707A">完了：自分の勝ち負け・型を言語</text>
<text x="142" y="672" font-size="11" fill="#67707A">化できる</text>
<rect x="16" y="648.0" width="80" height="22" rx="11" fill="#FDF3E2" stroke="#EF9F27" stroke-width="1"/>
<text x="56.0" y="663.0" text-anchor="middle" font-size="11" font-weight="700" fill="#EF9F27">—</text>
<rect x="360" y="624" width="14" height="14" rx="3" fill="#fff" stroke="#9AA3AD" stroke-width="1.5"/>
<text x="382" y="635" font-size="12.5" fill="#1F2933">自分のトークを振り返り、「説明」と「質問」の</text>
<text x="382" y="650" font-size="12.5" fill="#1F2933">割合を確認し、改善点を書き出す</text>
<rect x="360" y="660" width="14" height="14" rx="3" fill="#fff" stroke="#9AA3AD" stroke-width="1.5"/>
<text x="382" y="671" font-size="12.5" fill="#1F2933">提案前に必ず「悩み・現状・理想」を確認する会</text>
<text x="382" y="686" font-size="12.5" fill="#1F2933">話の型を毎回意識して実践する</text>
</svg>