<svg xmlns="http://www.w3.org/2000/svg" viewBox="0 0 680 692" font-family="Hiragino Sans, 'Noto Sans CJK JP', 'Yu Gothic', sans-serif" width="680" height="692">
<defs><linearGradient id="goalGrad" x1="0" y1="0" x2="1" y2="1"><stop offset="0" stop-color="#5B4BE0"/><stop offset="0.5" stop-color="#B14BE0"/><stop offset="1" stop-color="#FFC24B"/></linearGradient><linearGradient id="phx" x1="0" y1="0" x2="0" y2="1"><stop offset="0" stop-color="#FFE259"/><stop offset="0.5" stop-color="#FF9A00"/><stop offset="1" stop-color="#FF3D00"/></linearGradient><linearGradient id="phx2" x1="0" y1="0" x2="0" y2="1"><stop offset="0" stop-color="#FFF0A0"/><stop offset="1" stop-color="#FF7A00"/></linearGradient><linearGradient id="hen" x1="0" y1="0" x2="1" y2="1"><stop offset="0" stop-color="#37C9B0"/><stop offset="0.6" stop-color="#3DA0E8"/><stop offset="1" stop-color="#7A5BE0"/></linearGradient><linearGradient id="pcock" x1="0" y1="0" x2="0" y2="1"><stop offset="0" stop-color="#2BD0C0"/><stop offset="0.55" stop-color="#2E8FD0"/><stop offset="1" stop-color="#2E4BB0"/></linearGradient><linearGradient id="gold" x1="0" y1="0" x2="0" y2="1"><stop offset="0" stop-color="#FFF0A8"/><stop offset="0.5" stop-color="#F2C230"/><stop offset="1" stop-color="#C8901A"/></linearGradient></defs>
<rect x="0" y="0" width="680" height="692" fill="#FFFFFF"/>
<text x="20" y="34" font-size="19" font-weight="700" fill="#1F2933">藤江（ピタサチ・営業）｜契約を安定させる（クローザー）</text>
<text x="20" y="52" font-size="11" fill="#67707A">中長期：どんな客層でも自分の型で安定して契約…</text>
<text x="660" y="26" text-anchor="end" font-size="13" fill="#67707A">達成率</text>
<text x="462" y="50" text-anchor="end" font-size="20" font-weight="700" fill="#1D9E75">0%</text>
<rect x="470" y="38" width="150" height="12" rx="6" fill="#F2F4F6"/>
<rect x="470" y="38" width="0" height="12" rx="6" fill="#1D9E75"/>
<rect x="130" y="70" width="210" height="46" rx="10" fill="#F3F0FF" stroke="#B9AEEA" stroke-width="1.6" stroke-dasharray="5 4"/>
<polygon points="324.0,78.0 325.4,82.6 330.0,84.0 325.4,85.4 324.0,90.0 322.6,85.4 318.0,84.0 322.6,82.6" fill="#C9BEF2"/>
<text x="142" y="87" font-size="10.5" font-weight="700" fill="#6357CC">中長期ゴール（北極星）・半年後（2026年内）</text>
<text x="142" y="104" font-size="12" font-weight="600" fill="#4B3FA0">どんな客層でも自分の型で安定して契</text>
<text x="142" y="118" font-size="12" font-weight="600" fill="#4B3FA0">約でき、勝ち型を後輩に教えられる</text>
<line x1="235.0" y1="138" x2="235.0" y2="121" stroke="#B9AEEA" stroke-width="2" stroke-dasharray="4 3"/>
<path d="M230.0,123 L235.0,117 L240.0,123 Z" fill="#B9AEEA"/>
<text x="244.0" y="132" font-size="9.5" fill="#8A7FD0">その先へ</text>
<rect x="130" y="138" width="210" height="70" rx="10" fill="url(#goalGrad)" stroke="#FFD36E" stroke-width="2.5"/>
<rect x="130" y="138" width="210" height="35.0" rx="10" fill="#FFFFFF" opacity="0.16"/>
<text x="144" y="160" font-size="12" font-weight="700" fill="#FFFFFF">ゴール</text>
<polygon points="324.0,147.0 325.4,151.6 330.0,153.0 325.4,154.4 324.0,159.0 322.6,154.4 318.0,153.0 322.6,151.6" fill="#FFF1B8"/>
<text x="144" y="180" font-size="13" font-weight="600" fill="#FFFFFF">客層を問わず自分の型で契約</text>
<text x="144" y="196" font-size="13" font-weight="600" fill="#FFFFFF">まで運び、成約が安定する</text>
<rect x="16" y="162.0" width="80" height="22" rx="11" fill="#FFF3D6" stroke="#B7791F" stroke-width="1"/>
<text x="56.0" y="177.0" text-anchor="middle" font-size="11" font-weight="700" fill="#B7791F">達成</text>
<ellipse cx="402.0" cy="180.0" rx="25.5" ry="32.3" fill="#FFF3D6"/><ellipse cx="402.0" cy="180.0" rx="25.5" ry="32.3" fill="none" stroke="#E2D2A0" stroke-width="2.4"/><circle cx="393.5" cy="174.9" r="2.5" fill="#E6D3A0"/><circle cx="410.5" cy="188.5" r="2.2" fill="#E6D3A0"/><circle cx="403.7" cy="198.7" r="2.0" fill="#E6D3A0"/>
<text x="448" y="177" font-size="13" font-weight="700" fill="#1F2933">あと2コで進化</text>
<text x="448" y="195" font-size="11" fill="#67707A">餌 0/2　累計 0/10</text>
<text x="16" y="62" font-size="10" fill="#67707A">目標時期</text>
<line x1="235.0" y1="234" x2="235.0" y2="214" stroke="#9AA3AD" stroke-width="2"/>
<path d="M230.0,216 L235.0,210 L240.0,216 Z" fill="#9AA3AD"/>
<rect x="130" y="234" width="210" height="60" rx="10" fill="#F2F4F6" stroke="#9AA3AD" stroke-width="1"/>
<circle cx="118" cy="254" r="9" fill="#9AA3AD"/>
<text x="142" y="256" font-size="14" font-weight="700" fill="#1F2933">⑤自走</text>
<text x="142" y="274" font-size="11" fill="#67707A">完了：指導なしで型を回し、人に</text>
<text x="142" y="289" font-size="11" fill="#67707A">教えられる</text>
<rect x="16" y="253.0" width="80" height="22" rx="11" fill="#F2F4F6" stroke="#9AA3AD" stroke-width="1"/>
<text x="56.0" y="268.0" text-anchor="middle" font-size="11" font-weight="700" fill="#9AA3AD">8月第4週</text>
<rect x="360" y="239" width="14" height="14" rx="3" fill="#fff" stroke="#9AA3AD" stroke-width="1.5"/>
<text x="382" y="250" font-size="12.5" fill="#1F2933">自分の型を後輩に共有する</text>
<rect x="360" y="257" width="14" height="14" rx="3" fill="#fff" stroke="#9AA3AD" stroke-width="1.5"/>
<text x="382" y="268" font-size="12.5" fill="#1F2933">勝ち型を標準トークに言語化・共有する</text>
<line x1="235.0" y1="320" x2="235.0" y2="300" stroke="#9AA3AD" stroke-width="2"/>
<path d="M230.0,302 L235.0,296 L240.0,302 Z" fill="#9AA3AD"/>
<rect x="130" y="320" width="210" height="60" rx="10" fill="#F2F4F6" stroke="#9AA3AD" stroke-width="1"/>
<circle cx="118" cy="340" r="9" fill="#9AA3AD"/>
<text x="142" y="342" font-size="14" font-weight="700" fill="#1F2933">④振り返り</text>
<text x="142" y="360" font-size="11" fill="#67707A">完了：失注の共通要因を抽出でき</text>
<text x="142" y="375" font-size="11" fill="#67707A">る</text>
<rect x="16" y="339.0" width="80" height="22" rx="11" fill="#F2F4F6" stroke="#9AA3AD" stroke-width="1"/>
<text x="56.0" y="354.0" text-anchor="middle" font-size="11" font-weight="700" fill="#9AA3AD">8月第3週</text>
<rect x="360" y="325" width="14" height="14" rx="3" fill="#fff" stroke="#9AA3AD" stroke-width="1.5"/>
<text x="382" y="336" font-size="12.5" fill="#1F2933">週次で成約率の推移を確認</text>
<rect x="360" y="343" width="14" height="14" rx="3" fill="#fff" stroke="#9AA3AD" stroke-width="1.5"/>
<text x="382" y="354" font-size="12.5" fill="#1F2933">失注の共通要因を抽出する</text>
<line x1="235.0" y1="406" x2="235.0" y2="386" stroke="#9AA3AD" stroke-width="2"/>
<path d="M230.0,388 L235.0,382 L240.0,388 Z" fill="#9AA3AD"/>
<rect x="130" y="406" width="210" height="60" rx="10" fill="#F2F4F6" stroke="#9AA3AD" stroke-width="1"/>
<circle cx="118" cy="426" r="9" fill="#9AA3AD"/>
<text x="142" y="428" font-size="14" font-weight="700" fill="#1F2933">③実践</text>
<text x="142" y="446" font-size="11" fill="#67707A">完了：商談で型を意図的に使えて</text>
<text x="142" y="461" font-size="11" fill="#67707A">いる</text>
<rect x="16" y="425.0" width="80" height="22" rx="11" fill="#F2F4F6" stroke="#9AA3AD" stroke-width="1"/>
<text x="56.0" y="440.0" text-anchor="middle" font-size="11" font-weight="700" fill="#9AA3AD">8月第1週</text>
<rect x="360" y="411" width="14" height="14" rx="3" fill="#fff" stroke="#9AA3AD" stroke-width="1.5"/>
<text x="382" y="422" font-size="12.5" fill="#1F2933">商談前に型の要点を確認する</text>
<rect x="360" y="429" width="14" height="14" rx="3" fill="#fff" stroke="#9AA3AD" stroke-width="1.5"/>
<text x="382" y="440" font-size="12.5" fill="#1F2933">ネック処理を意図的に試す</text>
<line x1="235.0" y1="492" x2="235.0" y2="472" stroke="#9AA3AD" stroke-width="2"/>
<path d="M230.0,474 L235.0,468 L240.0,474 Z" fill="#9AA3AD"/>
<rect x="130" y="492" width="210" height="60" rx="10" fill="#F2F4F6" stroke="#9AA3AD" stroke-width="1"/>
<circle cx="118" cy="512" r="9" fill="#9AA3AD"/>
<text x="142" y="514" font-size="14" font-weight="700" fill="#1F2933">②練習</text>
<text x="142" y="532" font-size="11" fill="#67707A">完了：苦手ケースでも型どおり切</text>
<text x="142" y="547" font-size="11" fill="#67707A">り返せる</text>
<rect x="16" y="511.0" width="80" height="22" rx="11" fill="#F2F4F6" stroke="#9AA3AD" stroke-width="1"/>
<text x="56.0" y="526.0" text-anchor="middle" font-size="11" font-weight="700" fill="#9AA3AD">7月第4週</text>
<rect x="360" y="497" width="14" height="14" rx="3" fill="#fff" stroke="#9AA3AD" stroke-width="1.5"/>
<text x="382" y="508" font-size="12.5" fill="#1F2933">苦手ケースの切り返しをロープレ</text>
<rect x="360" y="515" width="14" height="14" rx="3" fill="#fff" stroke="#9AA3AD" stroke-width="1.5"/>
<text x="382" y="526" font-size="12.5" fill="#1F2933">トップ商談の録音を聞く</text>
<line x1="235.0" y1="578" x2="235.0" y2="558" stroke="#9AA3AD" stroke-width="2"/>
<path d="M230.0,560 L235.0,554 L240.0,560 Z" fill="#9AA3AD"/>
<rect x="130" y="578" width="210" height="60" rx="10" fill="#FDF3E2" stroke="#EF9F27" stroke-width="2"/>
<circle cx="118" cy="598" r="9" fill="#EF9F27"/>
<text x="142" y="600" font-size="14" font-weight="700" fill="#1F2933">①型を知る</text>
<text x="142" y="618" font-size="11" fill="#67707A">完了：自分の勝ち負けを言語化で</text>
<text x="142" y="633" font-size="11" fill="#67707A">きる</text>
<rect x="16" y="597.0" width="80" height="22" rx="11" fill="#FDF3E2" stroke="#EF9F27" stroke-width="1"/>
<text x="56.0" y="612.0" text-anchor="middle" font-size="11" font-weight="700" fill="#EF9F27">7月第3週</text>
<rect x="360" y="583" width="14" height="14" rx="3" fill="#fff" stroke="#9AA3AD" stroke-width="1.5"/>
<text x="382" y="594" font-size="12.5" fill="#1F2933">直近の成約・失注を5件ずつ振り返る</text>
<rect x="360" y="601" width="14" height="14" rx="3" fill="#fff" stroke="#9AA3AD" stroke-width="1.5"/>
<text x="382" y="612" font-size="12.5" fill="#1F2933">勝ち／負けパターンを言語化する</text>
</svg>