<svg xmlns="http://www.w3.org/2000/svg" viewBox="0 0 430 522" font-family="Hiragino Sans, 'Noto Sans CJK JP', 'Yu Gothic', IPAGothic, sans-serif" width="430" height="522"><defs><linearGradient id="goalGrad" x1="0" y1="0" x2="1" y2="1"><stop offset="0" stop-color="#5B4BE0"/><stop offset="0.5" stop-color="#B14BE0"/><stop offset="1" stop-color="#FFC24B"/></linearGradient><linearGradient id="phx" x1="0" y1="0" x2="0" y2="1"><stop offset="0" stop-color="#FFE259"/><stop offset="0.5" stop-color="#FF9A00"/><stop offset="1" stop-color="#FF3D00"/></linearGradient><linearGradient id="phx2" x1="0" y1="0" x2="0" y2="1"><stop offset="0" stop-color="#FFF0A0"/><stop offset="1" stop-color="#FF7A00"/></linearGradient><linearGradient id="hen" x1="0" y1="0" x2="1" y2="1"><stop offset="0" stop-color="#37C9B0"/><stop offset="0.6" stop-color="#3DA0E8"/><stop offset="1" stop-color="#7A5BE0"/></linearGradient><linearGradient id="pcock" x1="0" y1="0" x2="0" y2="1"><stop offset="0" stop-color="#2BD0C0"/><stop offset="0.55" stop-color="#2E8FD0"/><stop offset="1" stop-color="#2E4BB0"/></linearGradient><linearGradient id="gold" x1="0" y1="0" x2="0" y2="1"><stop offset="0" stop-color="#FFF0A8"/><stop offset="0.5" stop-color="#F2C230"/><stop offset="1" stop-color="#C8901A"/></linearGradient><linearGradient id="fishBlu" x1="0" y1="0" x2="0" y2="1"><stop offset="0" stop-color="#6FA9CC"/><stop offset="0.55" stop-color="#A8CFE3"/><stop offset="1" stop-color="#E4F1F7"/></linearGradient><linearGradient id="fishWht" x1="0" y1="0" x2="0" y2="1"><stop offset="0" stop-color="#FFFFFF"/><stop offset="0.6" stop-color="#F2F4F5"/><stop offset="1" stop-color="#D8DFE4"/></linearGradient><linearGradient id="fishGld" x1="0" y1="0" x2="0" y2="1"><stop offset="0" stop-color="#F8D25C"/><stop offset="0.55" stop-color="#EFAF2E"/><stop offset="1" stop-color="#D88A15"/></linearGradient><linearGradient id="drgBlu" x1="0" y1="0" x2="1" y2="1"><stop offset="0" stop-color="#55D0CF"/><stop offset="0.5" stop-color="#2E86C8"/><stop offset="1" stop-color="#4353C0"/></linearGradient><linearGradient id="drgGld" x1="0" y1="0" x2="0" y2="1"><stop offset="0" stop-color="#F9DC74"/><stop offset="0.45" stop-color="#EEB53A"/><stop offset="1" stop-color="#B87A12"/></linearGradient><linearGradient id="eggG" x1="0" y1="0" x2="0" y2="1"><stop offset="0" stop-color="#FFF9E8"/><stop offset="1" stop-color="#EFD9A8"/></linearGradient><radialGradient id="glowG"><stop offset="0" stop-color="#FFE9A0" stop-opacity="0.75"/><stop offset="1" stop-color="#FFE9A0" stop-opacity="0"/></radialGradient></defs><rect x="0" y="0" width="430" height="522" fill="#fff"/><text x="12" y="22" font-size="16" font-weight="700" fill="#1F2933">今川（管理）</text><text x="12" y="40" font-size="11.5" fill="#67707A">チーム・代理店の「売れる仕組み」を構築し、事業部売上を過去最高へ（マネジメント）</text><text x="418" y="22" text-anchor="end" font-size="17" font-weight="700" fill="#1D9E75">達成率 0%</text><rect x="280" y="30" width="138" height="8" rx="4" fill="#F2F4F6"/><rect x="280" y="30" width="0" height="8" rx="4" fill="#1D9E75"/><rect x="12" y="48" width="270" height="64" rx="10" fill="url(#goalGrad)" stroke="#FFD36E" stroke-width="2"/><rect x="12" y="48" width="270" height="32.0" rx="10" fill="#fff" opacity="0.16"/><text x="24" y="68" font-size="12" font-weight="700" fill="#fff">ゴール</text><polygon points="267.0,56.0 268.4,60.6 273.0,62.0 268.4,63.4 267.0,68.0 265.6,63.4 261.0,62.0 265.6,60.6" fill="#FFF1B8"/><text x="24" y="88" font-size="14" font-weight="600" fill="#fff">自分が営業の基準となる行動を継続でき</text><text x="24" y="105" font-size="14" font-weight="600" fill="#fff">、メンバーが迷わず実践できる営業フロ</text><g transform="translate(350,80) scale(1.3)"><g transform="scale(0.86)"><path d="M8,-17 C-3,-13.5 -8.5,-5.5 1,0" fill="none" stroke="#1E4E86" stroke-width="12.1" stroke-linecap="round" stroke-linejoin="round"/><path d="M1,0 C9.5,5 4,12 -4.5,13.8" fill="none" stroke="#1E4E86" stroke-width="9.9" stroke-linecap="round" stroke-linejoin="round"/><path d="M-4.5,13.8 C-11,15.2 -16.5,16.4 -22,19.5" fill="none" stroke="#1E4E86" stroke-width="6.7" stroke-linecap="round" stroke-linejoin="round"/><path d="M8,-17 C-3,-13.5 -8.5,-5.5 1,0" fill="none" stroke="url(#drgBlu)" stroke-width="9.4" stroke-linecap="round" stroke-linejoin="round"/><path d="M1,0 C9.5,5 4,12 -4.5,13.8" fill="none" stroke="url(#drgBlu)" stroke-width="7.2" stroke-linecap="round" stroke-linejoin="round"/><path d="M-4.5,13.8 C-11,15.2 -16.5,16.4 -22,19.5" fill="none" stroke="url(#drgBlu)" stroke-width="4.2" stroke-linecap="round" stroke-linejoin="round"/><path d="M8,-17 C-3,-13.5 -8.5,-5.5 1,0" fill="none" stroke="#CFE6F2" stroke-width="4" stroke-dasharray="1.6 2" stroke-linecap="butt" opacity="0.85" transform="translate(0.9,1.5)"/><path d="M1,0 C9.5,5 4,12 -4.5,13.8" fill="none" stroke="#CFE6F2" stroke-width="3.4" stroke-dasharray="1.6 2" stroke-linecap="butt" opacity="0.85" transform="translate(0.9,1.5)"/><path d="M-4.5,13.8 C-11,15.2 -16.5,16.4 -22,19.5" fill="none" stroke="#CFE6F2" stroke-width="2" stroke-dasharray="1.6 2" stroke-linecap="butt" opacity="0.85" transform="translate(0.9,1.5)"/><path d="M8,-17 C-3,-13.5 -8.5,-5.5 1,0" fill="none" stroke="#E8B23A" stroke-width="2" stroke-dasharray="1.2 2.6" stroke-linecap="butt" opacity="0.9" transform="translate(-0.9,-1.6)"/><path d="M1,0 C9.5,5 4,12 -4.5,13.8" fill="none" stroke="#E8B23A" stroke-width="1.8" stroke-dasharray="1.2 2.6" stroke-linecap="butt" opacity="0.9" transform="translate(-0.9,-1.6)"/><path d="M-4.5,13.8 C-11,15.2 -16.5,16.4 -22,19.5" fill="none" stroke="#E8B23A" stroke-width="1.2" stroke-dasharray="1.2 2.6" stroke-linecap="butt" opacity="0.9" transform="translate(-0.9,-1.6)"/><path d="M4.6,-5.4 C3.2,-3 2.6,-1 3,1" fill="none" stroke="#1E4E86" stroke-width="2.2" stroke-linecap="round" stroke-linejoin="round"/><path d="M3,1 C1.4,2 0.2,2.4 -1,2.3" fill="none" stroke="#CFE6F2" stroke-width="1" stroke-linecap="round" stroke-linejoin="round"/><path d="M3,1 C2.5,2.6 2.2,3.8 2.4,4.9" fill="none" stroke="#CFE6F2" stroke-width="1" stroke-linecap="round" stroke-linejoin="round"/><path d="M3,1 C4.2,2.2 5,3 5.9,3.4" fill="none" stroke="#CFE6F2" stroke-width="1" stroke-linecap="round" stroke-linejoin="round"/><path d="M-5.5,12.5 C-6.6,14 -7,15.4 -6.7,16.9" fill="none" stroke="#1E4E86" stroke-width="1.9" stroke-linecap="round" stroke-linejoin="round"/><path d="M-6.7,16.9 C-8,17.6 -9,17.8 -10,17.6" fill="none" stroke="#CFE6F2" stroke-width="0.9" stroke-linecap="round" stroke-linejoin="round"/><path d="M-6.7,16.9 C-7,18.2 -7.1,19.2 -6.9,20.1" fill="none" stroke="#CFE6F2" stroke-width="0.9" stroke-linecap="round" stroke-linejoin="round"/><path d="M-6.7,16.9 C-5.7,17.8 -5,18.4 -4.2,18.7" fill="none" stroke="#CFE6F2" stroke-width="0.9" stroke-linecap="round" stroke-linejoin="round"/><path d="M-22,19.5 C-25.4,18 -27.6,18.4 -29.4,20.2 C-27.2,20.4 -25.9,21 -24.9,22.1 C-26.7,22.5 -28,23.5 -28.7,24.9 C-26.2,24.3 -23.8,23.6 -21.6,21.6 Z" fill="#E8B23A" stroke="#1E4E86" stroke-width="0.5" stroke-linecap="round" stroke-linejoin="round"/><path d="M4.5,-18.5 C3.8,-23 6.6,-26.6 11.4,-27.4 C14.6,-27.9 17.8,-27.4 20.8,-26 L25.6,-23.6 C24,-22.5 22.2,-22.2 20.6,-22.4 L24.4,-19.8 C21.6,-17.6 17.6,-16.9 13.8,-17.8 C10,-18.7 7,-18.4 4.5,-18.5 Z" fill="url(#drgBlu)" stroke="#1E4E86" stroke-width="0.7" stroke-linecap="round" stroke-linejoin="round"/><path d="M19,-21.8 C17,-20 14.4,-19.2 11.8,-19.4" fill="none" stroke="#1E4E86" stroke-width="0.7" stroke-linecap="round" stroke-linejoin="round" opacity="0.7"/><circle cx="22.8" cy="-24.6" r="0.55" fill="#1E4E86"/><ellipse cx="12.4" cy="-23.4" rx="1.5" ry="1.1" fill="#FFFFFF"/><circle cx="12.8" cy="-23.3" r="0.75" fill="#17110B"/><path d="M10.2,-25.3 L15,-25.9" fill="none" stroke="#1E4E86" stroke-width="0.9" stroke-linecap="round" stroke-linejoin="round"/><path d="M10.2,-27 C8.8,-31.6 5.6,-34 1.8,-34.6" fill="none" stroke="#1E4E86" stroke-width="1.8" stroke-linecap="round" stroke-linejoin="round"/><path d="M6.4,-32.6 C4.8,-34 3,-34.6 1.2,-34.6" fill="none" stroke="#1E4E86" stroke-width="1.1" stroke-linecap="round" stroke-linejoin="round"/><path d="M15.2,-27.3 C16,-32 19,-34.4 23.2,-34.9" fill="none" stroke="#1E4E86" stroke-width="1.8" stroke-linecap="round" stroke-linejoin="round"/><path d="M19,-33.2 C20.6,-34.6 22.4,-35.2 24.2,-35.2" fill="none" stroke="#1E4E86" stroke-width="1.1" stroke-linecap="round" stroke-linejoin="round"/><path d="M5.8,-22 C0.4,-22 -3.6,-19.4 -6.4,-15.6" fill="none" stroke="#E8B23A" stroke-width="1.6" stroke-linecap="round" stroke-linejoin="round" opacity="0.9"/><path d="M6.2,-20 C1.6,-19.4 -1.8,-17 -4,-13.6" fill="none" stroke="#E8B23A" stroke-width="1.6" stroke-linecap="round" stroke-linejoin="round" opacity="0.9"/><path d="M7,-25.6 C3,-27 -0.6,-26.6 -3.6,-24.6" fill="none" stroke="#E8B23A" stroke-width="1.6" stroke-linecap="round" stroke-linejoin="round" opacity="0.9"/><path d="M12,-19.2 C11,-17 9.6,-15.6 7.8,-14.8" fill="none" stroke="#E8B23A" stroke-width="1.2" stroke-linecap="round" stroke-linejoin="round" opacity="0.85"/><path d="M23.4,-22.6 C28.2,-21.6 31,-18 31.8,-13.2" fill="none" stroke="#E8B23A" stroke-width="0.9" stroke-linecap="round" stroke-linejoin="round"/><path d="M22.6,-21 C26.4,-19.2 28.4,-16 28.8,-12" fill="none" stroke="#E8B23A" stroke-width="0.8" stroke-linecap="round" stroke-linejoin="round"/><polygon points="-20.0,-9.9 -19.5,-8.5 -18.1,-8.0 -19.5,-7.5 -20.0,-6.1 -20.5,-7.5 -21.9,-8.0 -20.5,-8.5" fill="#FFF1B8"/><polygon points="24.0,4.3 24.4,5.6 25.7,6.0 24.4,6.4 24.0,7.7 23.6,6.4 22.3,6.0 23.6,5.6" fill="#DCEFFA"/></g></g><text x="350" y="114" text-anchor="middle" font-size="11" font-weight="700" fill="#B7791F">Lv.8 青龍</text><rect x="12" y="124" width="406" height="46" rx="10" fill="#FDF3E2" stroke="#EF9F27"/><circle cx="26" cy="137" r="5.2" fill="none" stroke="#EF9F27" stroke-width="1.8"/><circle cx="26" cy="137" r="2.6" fill="none" stroke="#EF9F27" stroke-width="1.5"/><circle cx="26" cy="137" r="1.3" fill="#EF9F27"/><text x="37" y="141" font-size="12" font-weight="700" fill="#EF9F27">今週の最優先（今ここ：①型を知る）</text><text x="24" y="161" font-size="15" font-weight="700" fill="#1F2933">現在の営業フロー（集客～契約～工事）を書き出し、「改善すべ…</text><rect x="6" y="178" width="418" height="60" rx="9" fill="#FDF3E2" opacity="0.5"/><circle cx="18" cy="191" r="5.5" fill="#EF9F27"/><text x="30" y="195" font-size="13" font-weight="700" fill="#1F2933">①型を知る</text><rect x="330" y="182" width="88" height="19" rx="9.5" fill="#FDF3E2" stroke="#EF9F27"/><text x="374" y="195" text-anchor="middle" font-size="11" font-weight="700" fill="#EF9F27">—</text><rect x="30" y="204" width="13" height="13" rx="3" fill="#fff" stroke="#9AA3AD" stroke-width="1.4"/><text x="48" y="214" font-size="12" fill="#1F2933">現在の営業フロー（集客～契約～工事）を書き出し、「改善すべ…</text><rect x="30" y="220" width="13" height="13" rx="3" fill="#fff" stroke="#9AA3AD" stroke-width="1.4"/><text x="48" y="230" font-size="12" fill="#1F2933">クーリングオフ・審査落ち・失注を案件ごとに振り返り、原因を…</text><circle cx="18" cy="257" r="5.5" fill="#9AA3AD"/><text x="30" y="261" font-size="13" font-weight="700" fill="#1F2933">②練習</text><rect x="330" y="248" width="88" height="19" rx="9.5" fill="#F2F4F6" stroke="#9AA3AD"/><text x="374" y="261" text-anchor="middle" font-size="11" font-weight="700" fill="#9AA3AD">—</text><rect x="30" y="270" width="13" height="13" rx="3" fill="#fff" stroke="#9AA3AD" stroke-width="1.4"/><text x="48" y="280" font-size="12" fill="#1F2933">商材・提案資料・営業トークを改善し、実際の営業で使える形ま…</text><rect x="30" y="286" width="13" height="13" rx="3" fill="#fff" stroke="#9AA3AD" stroke-width="1.4"/><text x="48" y="296" font-size="12" fill="#1F2933">メンバーとロープレ・営業レビューを実施し、新しい営業フロー…</text><circle cx="18" cy="323" r="5.5" fill="#9AA3AD"/><text x="30" y="327" font-size="13" font-weight="700" fill="#1F2933">③実践</text><rect x="330" y="314" width="88" height="19" rx="9.5" fill="#F2F4F6" stroke="#9AA3AD"/><text x="374" y="327" text-anchor="middle" font-size="11" font-weight="700" fill="#9AA3AD">—</text><rect x="30" y="336" width="13" height="13" rx="3" fill="#fff" stroke="#9AA3AD" stroke-width="1.4"/><text x="48" y="346" font-size="12" fill="#1F2933">自ら現場で改善した営業を実践し、成功・失敗事例をチームへ共…</text><rect x="30" y="352" width="13" height="13" rx="3" fill="#fff" stroke="#9AA3AD" stroke-width="1.4"/><text x="48" y="362" font-size="12" fill="#1F2933">メンバーの商談同行・レビューを行い、改善点をその場でフィー…</text><circle cx="18" cy="389" r="5.5" fill="#9AA3AD"/><text x="30" y="393" font-size="13" font-weight="700" fill="#1F2933">④振り返り</text><rect x="330" y="380" width="88" height="19" rx="9.5" fill="#F2F4F6" stroke="#9AA3AD"/><text x="374" y="393" text-anchor="middle" font-size="11" font-weight="700" fill="#9AA3AD">—</text><rect x="30" y="402" width="13" height="13" rx="3" fill="#fff" stroke="#9AA3AD" stroke-width="1.4"/><text x="48" y="412" font-size="12" fill="#1F2933">商材改善・営業改善によって起きた変化を振り返り、残る課題を…</text><rect x="30" y="418" width="13" height="13" rx="3" fill="#fff" stroke="#9AA3AD" stroke-width="1.4"/><text x="48" y="428" font-size="12" fill="#1F2933">クーリングオフ・審査落ちについて再度分析し、営業プロセスへ…</text><circle cx="18" cy="455" r="5.5" fill="#9AA3AD"/><text x="30" y="459" font-size="13" font-weight="700" fill="#1F2933">⑤自走</text><rect x="330" y="446" width="88" height="19" rx="9.5" fill="#F2F4F6" stroke="#9AA3AD"/><text x="374" y="459" text-anchor="middle" font-size="11" font-weight="700" fill="#9AA3AD">—</text><rect x="30" y="468" width="13" height="13" rx="3" fill="#fff" stroke="#9AA3AD" stroke-width="1.4"/><text x="48" y="478" font-size="12" fill="#1F2933">チームが自走できるよう、週次レビュー・KPI管理・教育の運…</text><rect x="30" y="484" width="13" height="13" rx="3" fill="#fff" stroke="#9AA3AD" stroke-width="1.4"/><text x="48" y="494" font-size="12" fill="#1F2933">代理店がそのまま使える営業マニュアル・資料・教育フローを完…</text></svg>