<svg xmlns="http://www.w3.org/2000/svg" viewBox="0 0 384 478" font-family="Hiragino Sans, 'Noto Sans CJK JP', 'Yu Gothic', sans-serif" width="384" height="478"><defs><linearGradient id="goalGrad" x1="0" y1="0" x2="1" y2="1"><stop offset="0" stop-color="#5B4BE0"/><stop offset="0.5" stop-color="#B14BE0"/><stop offset="1" stop-color="#FFC24B"/></linearGradient><linearGradient id="phx" x1="0" y1="0" x2="0" y2="1"><stop offset="0" stop-color="#FFE259"/><stop offset="0.5" stop-color="#FF9A00"/><stop offset="1" stop-color="#FF3D00"/></linearGradient><linearGradient id="phx2" x1="0" y1="0" x2="0" y2="1"><stop offset="0" stop-color="#FFF0A0"/><stop offset="1" stop-color="#FF7A00"/></linearGradient><linearGradient id="hen" x1="0" y1="0" x2="1" y2="1"><stop offset="0" stop-color="#37C9B0"/><stop offset="0.6" stop-color="#3DA0E8"/><stop offset="1" stop-color="#7A5BE0"/></linearGradient><linearGradient id="pcock" x1="0" y1="0" x2="0" y2="1"><stop offset="0" stop-color="#2BD0C0"/><stop offset="0.55" stop-color="#2E8FD0"/><stop offset="1" stop-color="#2E4BB0"/></linearGradient><linearGradient id="gold" x1="0" y1="0" x2="0" y2="1"><stop offset="0" stop-color="#FFF0A8"/><stop offset="0.5" stop-color="#F2C230"/><stop offset="1" stop-color="#C8901A"/></linearGradient></defs><rect x="0" y="0" width="384" height="478" fill="#fff"/><text x="12" y="20" font-size="14" font-weight="700" fill="#1F2933">今川（E.L.P・営業部長）</text><text x="12" y="37" font-size="10.5" fill="#67707A">チームの成約を仕組み化する（マネジメント）</text><text x="372" y="20" text-anchor="end" font-size="15" font-weight="700" fill="#1D9E75">達成率 0%</text><rect x="256" y="27" width="116" height="7" rx="3.5" fill="#F2F4F6"/><rect x="256" y="27" width="0" height="7" rx="3.5" fill="#1D9E75"/><rect x="12" y="46" width="244" height="60" rx="9" fill="url(#goalGrad)" stroke="#FFD36E" stroke-width="2"/><rect x="12" y="46" width="244" height="30.0" rx="9" fill="#fff" opacity="0.16"/><text x="24" y="64" font-size="11" font-weight="700" fill="#fff">ゴール</text><polygon points="242.0,53.5 243.3,57.7 247.5,59.0 243.3,60.3 242.0,64.5 240.7,60.3 236.5,59.0 240.7,57.7" fill="#FFF1B8"/><text x="24" y="83" font-size="12" font-weight="600" fill="#fff">各メンバーの型を引き出し、チー</text><text x="24" y="98" font-size="12" font-weight="600" fill="#fff">ム全体の成約率を底上げできてい</text><ellipse cx="314.0" cy="76.0" rx="18.0" ry="22.8" fill="#FFF3D6"/><ellipse cx="314.0" cy="76.0" rx="18.0" ry="22.8" fill="none" stroke="#E2D2A0" stroke-width="1.7"/><circle cx="308.0" cy="72.4" r="1.8" fill="#E6D3A0"/><circle cx="320.0" cy="82.0" r="1.6" fill="#E6D3A0"/><circle cx="315.2" cy="89.2" r="1.4" fill="#E6D3A0"/><text x="314" y="107" text-anchor="middle" font-size="9.5" font-weight="700" fill="#B7791F">あと2コ</text><rect x="12" y="118" width="360" height="40" rx="9" fill="#FDF3E2" stroke="#EF9F27"/><circle cx="24" cy="130" r="4.6" fill="none" stroke="#EF9F27" stroke-width="1.6"/><circle cx="24" cy="130" r="2.3" fill="none" stroke="#EF9F27" stroke-width="1.3"/><circle cx="24" cy="130" r="1.1" fill="#EF9F27"/><text x="34" y="133" font-size="10" font-weight="700" fill="#EF9F27">今週の最優先（今ここ：①型を知る）</text><text x="22" y="150" font-size="12.5" font-weight="700" fill="#1F2933">メンバー各人の勝ち／負けパターンを把握する</text><rect x="6" y="164" width="372" height="54" rx="8" fill="#FDF3E2" opacity="0.5"/><circle cx="17" cy="176" r="5" fill="#EF9F27"/><text x="28" y="180" font-size="11.5" font-weight="700" fill="#1F2933">①型を知る</text><rect x="292" y="168" width="80" height="17" rx="8.5" fill="#FDF3E2" stroke="#EF9F27"/><text x="332" y="180" text-anchor="middle" font-size="9.5" font-weight="700" fill="#EF9F27">7月第3週</text><rect x="28" y="188" width="11" height="11" rx="2.5" fill="#fff" stroke="#9AA3AD" stroke-width="1.3"/><text x="44" y="197" font-size="10.5" fill="#1F2933">メンバー各人の勝ち／負けパターンを把握する</text><rect x="28" y="202" width="11" height="11" rx="2.5" fill="#fff" stroke="#9AA3AD" stroke-width="1.3"/><text x="44" y="211" font-size="10.5" fill="#1F2933">各人の現在ステージを見立てる</text><circle cx="17" cy="236" r="5" fill="#9AA3AD"/><text x="28" y="240" font-size="11.5" font-weight="700" fill="#1F2933">②練習</text><rect x="292" y="228" width="80" height="17" rx="8.5" fill="#F2F4F6" stroke="#9AA3AD"/><text x="332" y="240" text-anchor="middle" font-size="9.5" font-weight="700" fill="#9AA3AD">7月第4週</text><rect x="28" y="248" width="11" height="11" rx="2.5" fill="#fff" stroke="#9AA3AD" stroke-width="1.3"/><text x="44" y="257" font-size="10.5" fill="#1F2933">1on1の問いかけ設計を用意する</text><rect x="28" y="262" width="11" height="11" rx="2.5" fill="#fff" stroke="#9AA3AD" stroke-width="1.3"/><text x="44" y="271" font-size="10.5" fill="#1F2933">ロープレの観点表を作る</text><circle cx="17" cy="296" r="5" fill="#9AA3AD"/><text x="28" y="300" font-size="11.5" font-weight="700" fill="#1F2933">③実践</text><rect x="292" y="288" width="80" height="17" rx="8.5" fill="#F2F4F6" stroke="#9AA3AD"/><text x="332" y="300" text-anchor="middle" font-size="9.5" font-weight="700" fill="#9AA3AD">8月第1週</text><rect x="28" y="308" width="11" height="11" rx="2.5" fill="#fff" stroke="#9AA3AD" stroke-width="1.3"/><text x="44" y="317" font-size="10.5" fill="#1F2933">週次で各人の今週フォーカスを握る</text><rect x="28" y="322" width="11" height="11" rx="2.5" fill="#fff" stroke="#9AA3AD" stroke-width="1.3"/><text x="44" y="331" font-size="10.5" fill="#1F2933">商談同席でフィードバックする</text><circle cx="17" cy="356" r="5" fill="#9AA3AD"/><text x="28" y="360" font-size="11.5" font-weight="700" fill="#1F2933">④振り返り</text><rect x="292" y="348" width="80" height="17" rx="8.5" fill="#F2F4F6" stroke="#9AA3AD"/><text x="332" y="360" text-anchor="middle" font-size="9.5" font-weight="700" fill="#9AA3AD">8月第3週</text><rect x="28" y="368" width="11" height="11" rx="2.5" fill="#fff" stroke="#9AA3AD" stroke-width="1.3"/><text x="44" y="377" font-size="10.5" fill="#1F2933">チームの成約率推移をレビューする</text><rect x="28" y="382" width="11" height="11" rx="2.5" fill="#fff" stroke="#9AA3AD" stroke-width="1.3"/><text x="44" y="391" font-size="10.5" fill="#1F2933">詰まりの共通要因を抽出する</text><circle cx="17" cy="416" r="5" fill="#9AA3AD"/><text x="28" y="420" font-size="11.5" font-weight="700" fill="#1F2933">⑤自走</text><rect x="292" y="408" width="80" height="17" rx="8.5" fill="#F2F4F6" stroke="#9AA3AD"/><text x="332" y="420" text-anchor="middle" font-size="9.5" font-weight="700" fill="#9AA3AD">8月第4週</text><rect x="28" y="428" width="11" height="11" rx="2.5" fill="#fff" stroke="#9AA3AD" stroke-width="1.3"/><text x="44" y="437" font-size="10.5" fill="#1F2933">勝ち型をチームの標準トークに展開する</text><rect x="28" y="442" width="11" height="11" rx="2.5" fill="#fff" stroke="#9AA3AD" stroke-width="1.3"/><text x="44" y="451" font-size="10.5" fill="#1F2933">各人が自走できる仕組みにする</text></svg>