<svg xmlns="http://www.w3.org/2000/svg" viewBox="0 0 384 548" font-family="Hiragino Sans, 'Noto Sans CJK JP', 'Yu Gothic', sans-serif" width="384" height="548"><defs><linearGradient id="goalGrad" x1="0" y1="0" x2="1" y2="1"><stop offset="0" stop-color="#5B4BE0"/><stop offset="0.5" stop-color="#B14BE0"/><stop offset="1" stop-color="#FFC24B"/></linearGradient><linearGradient id="phx" x1="0" y1="0" x2="0" y2="1"><stop offset="0" stop-color="#FFE259"/><stop offset="0.5" stop-color="#FF9A00"/><stop offset="1" stop-color="#FF3D00"/></linearGradient><linearGradient id="phx2" x1="0" y1="0" x2="0" y2="1"><stop offset="0" stop-color="#FFF0A0"/><stop offset="1" stop-color="#FF7A00"/></linearGradient><linearGradient id="hen" x1="0" y1="0" x2="1" y2="1"><stop offset="0" stop-color="#37C9B0"/><stop offset="0.6" stop-color="#3DA0E8"/><stop offset="1" stop-color="#7A5BE0"/></linearGradient><linearGradient id="pcock" x1="0" y1="0" x2="0" y2="1"><stop offset="0" stop-color="#2BD0C0"/><stop offset="0.55" stop-color="#2E8FD0"/><stop offset="1" stop-color="#2E4BB0"/></linearGradient><linearGradient id="gold" x1="0" y1="0" x2="0" y2="1"><stop offset="0" stop-color="#FFF0A8"/><stop offset="0.5" stop-color="#F2C230"/><stop offset="1" stop-color="#C8901A"/></linearGradient></defs><rect x="0" y="0" width="384" height="548" fill="#fff"/><text x="12" y="20" font-size="14" font-weight="700" fill="#1F2933">岡野（wanny）</text><text x="12" y="37" font-size="10.5" fill="#67707A">契約を安定させる（クローザー）</text><text x="372" y="20" text-anchor="end" font-size="15" font-weight="700" fill="#1D9E75">達成率 13%</text><rect x="256" y="27" width="116" height="7" rx="3.5" fill="#F2F4F6"/><rect x="256" y="27" width="15" height="7" rx="3.5" fill="#1D9E75"/><rect x="12" y="46" width="244" height="60" rx="9" fill="url(#goalGrad)" stroke="#FFD36E" stroke-width="2"/><rect x="12" y="46" width="244" height="30.0" rx="9" fill="#fff" opacity="0.16"/><text x="24" y="64" font-size="11" font-weight="700" fill="#fff">ゴール</text><polygon points="242.0,53.5 243.3,57.7 247.5,59.0 243.3,60.3 242.0,64.5 240.7,60.3 236.5,59.0 240.7,57.7" fill="#FFF1B8"/><text x="24" y="83" font-size="12" font-weight="600" fill="#fff">客層を問わず自分の型で契約まで</text><text x="24" y="98" font-size="12" font-weight="600" fill="#fff">運び、成約が安定する</text><line x1="309.2" y1="91.6" x2="309.2" y2="98.8" stroke="#F2A30D" stroke-width="2.4" stroke-linecap="round"/><line x1="318.8" y1="91.6" x2="318.8" y2="98.8" stroke="#F2A30D" stroke-width="2.4" stroke-linecap="round"/><circle cx="314.0" cy="78.4" r="15.6" fill="#FFD23F"/><ellipse cx="304.4" cy="79.6" rx="5.4" ry="8.4" fill="#F4C12B"/><circle cx="314.0" cy="65.2" r="9.6" fill="#FFD23F"/><polygon points="322.4,62.6 329.6,65.2 322.4,67.8" fill="#F2870D"/><circle cx="317.6" cy="62.8" r="2.5" fill="#FFFFFF"/><circle cx="318.0" cy="62.8" r="1.4" fill="#33270D"/><path d="M312.8,56.8Q310.4,50.8 315.2,50.8" fill="none" stroke="#F4C12B" stroke-width="1.9" stroke-linecap="round" stroke-linejoin="round"/><text x="314" y="107" text-anchor="middle" font-size="9.5" font-weight="700" fill="#B7791F">あと2コ</text><rect x="12" y="118" width="360" height="40" rx="9" fill="#FDF3E2" stroke="#EF9F27"/><circle cx="24" cy="130" r="4.6" fill="none" stroke="#EF9F27" stroke-width="1.6"/><circle cx="24" cy="130" r="2.3" fill="none" stroke="#EF9F27" stroke-width="1.3"/><circle cx="24" cy="130" r="1.1" fill="#EF9F27"/><text x="34" y="133" font-size="10" font-weight="700" fill="#EF9F27">今週の最優先（今ここ：②練習）</text><text x="22" y="150" font-size="12.5" font-weight="700" fill="#1F2933">苦手ケースの切り返しをロープレ</text><circle cx="17" cy="176" r="5" fill="#1D9E75"/><text x="28" y="180" font-size="11.5" font-weight="700" fill="#1F2933">①型を知る</text><rect x="292" y="168" width="80" height="17" rx="8.5" fill="#E7F5EF" stroke="#1D9E75"/><text x="332" y="180" text-anchor="middle" font-size="9.5" font-weight="700" fill="#1D9E75">クリア</text><rect x="28" y="188" width="11" height="11" rx="2.5" fill="#1D9E75" stroke="#1D9E75" stroke-width="1.3"/><path d="M30.5,193.5 l2,2 l4,-5" fill="none" stroke="#fff" stroke-width="1.6" stroke-linecap="round" stroke-linejoin="round"/><text x="44" y="197" font-size="10.5" fill="#67707A" text-decoration="line-through">直近の成約・失注を5件ずつ振り返る</text><rect x="28" y="202" width="11" height="11" rx="2.5" fill="#1D9E75" stroke="#1D9E75" stroke-width="1.3"/><path d="M30.5,207.5 l2,2 l4,-5" fill="none" stroke="#fff" stroke-width="1.6" stroke-linecap="round" stroke-linejoin="round"/><text x="44" y="211" font-size="10.5" fill="#67707A" text-decoration="line-through">勝ち／負けパターンを言語化する</text><rect x="6" y="224" width="372" height="54" rx="8" fill="#FDF3E2" opacity="0.5"/><circle cx="17" cy="236" r="5" fill="#EF9F27"/><text x="28" y="240" font-size="11.5" font-weight="700" fill="#1F2933">②練習</text><rect x="292" y="228" width="80" height="17" rx="8.5" fill="#FEE2E2" stroke="#DC2626"/><text x="332" y="240" text-anchor="middle" font-size="9.5" font-weight="700" fill="#DC2626">⚠6月第4週</text><rect x="28" y="248" width="11" height="11" rx="2.5" fill="#fff" stroke="#9AA3AD" stroke-width="1.3"/><text x="44" y="257" font-size="10.5" fill="#1F2933">苦手ケースの切り返しをロープレ</text><rect x="28" y="262" width="11" height="11" rx="2.5" fill="#fff" stroke="#9AA3AD" stroke-width="1.3"/><text x="44" y="271" font-size="10.5" fill="#1F2933">トップ商談の録音を聞く</text><circle cx="17" cy="296" r="5" fill="#9AA3AD"/><text x="28" y="300" font-size="11.5" font-weight="700" fill="#1F2933">③実践</text><rect x="292" y="288" width="80" height="17" rx="8.5" fill="#F2F4F6" stroke="#9AA3AD"/><text x="332" y="300" text-anchor="middle" font-size="9.5" font-weight="700" fill="#9AA3AD">7月第1週</text><rect x="28" y="308" width="11" height="11" rx="2.5" fill="#fff" stroke="#9AA3AD" stroke-width="1.3"/><text x="44" y="317" font-size="10.5" fill="#1F2933">商談前に型の要点を確認する</text><rect x="28" y="322" width="11" height="11" rx="2.5" fill="#fff" stroke="#9AA3AD" stroke-width="1.3"/><text x="44" y="331" font-size="10.5" fill="#1F2933">ネック処理を意図的に試す</text><circle cx="17" cy="356" r="5" fill="#9AA3AD"/><text x="28" y="360" font-size="11.5" font-weight="700" fill="#1F2933">④振り返り</text><rect x="292" y="348" width="80" height="17" rx="8.5" fill="#F2F4F6" stroke="#9AA3AD"/><text x="332" y="360" text-anchor="middle" font-size="9.5" font-weight="700" fill="#9AA3AD">7月第3週</text><rect x="28" y="368" width="11" height="11" rx="2.5" fill="#fff" stroke="#9AA3AD" stroke-width="1.3"/><text x="44" y="377" font-size="10.5" fill="#1F2933">週次で成約率の推移を確認</text><rect x="28" y="382" width="11" height="11" rx="2.5" fill="#fff" stroke="#9AA3AD" stroke-width="1.3"/><text x="44" y="391" font-size="10.5" fill="#1F2933">失注の共通要因を抽出する</text><rect x="28" y="396" width="11" height="11" rx="2.5" fill="#fff" stroke="#9AA3AD" stroke-width="1.3"/><text x="44" y="405" font-size="10.5" fill="#1F2933">wannyメンバーの失注商談を1件レビューし、要因を自分の型</text><rect x="28" y="410" width="11" height="11" rx="2.5" fill="#fff" stroke="#9AA3AD" stroke-width="1.3"/><text x="44" y="419" font-size="10.5" fill="#1F2933">【管理】wany全体の成約率を把握し、底上げ対象メンバーを決</text><circle cx="17" cy="444" r="5" fill="#9AA3AD"/><text x="28" y="448" font-size="11.5" font-weight="700" fill="#1F2933">⑤自走</text><rect x="292" y="436" width="80" height="17" rx="8.5" fill="#F2F4F6" stroke="#9AA3AD"/><text x="332" y="448" text-anchor="middle" font-size="9.5" font-weight="700" fill="#9AA3AD">7月第4週</text><rect x="28" y="456" width="11" height="11" rx="2.5" fill="#fff" stroke="#9AA3AD" stroke-width="1.3"/><text x="44" y="465" font-size="10.5" fill="#1F2933">苦手客層を指名で担当する</text><rect x="28" y="470" width="11" height="11" rx="2.5" fill="#fff" stroke="#9AA3AD" stroke-width="1.3"/><text x="44" y="479" font-size="10.5" fill="#1F2933">自分の型を後輩に共有する</text><rect x="28" y="484" width="11" height="11" rx="2.5" fill="#fff" stroke="#9AA3AD" stroke-width="1.3"/><text x="44" y="493" font-size="10.5" fill="#1F2933">勝ち型をwannyの標準トークに言語化・共有する</text><rect x="28" y="498" width="11" height="11" rx="2.5" fill="#fff" stroke="#9AA3AD" stroke-width="1.3"/><text x="44" y="507" font-size="10.5" fill="#1F2933">メンバーのロープレを主催し、教えて詰まった点を自分の再発見に</text><rect x="28" y="512" width="11" height="11" rx="2.5" fill="#fff" stroke="#9AA3AD" stroke-width="1.3"/><text x="44" y="521" font-size="10.5" fill="#1F2933">【管理】wannyメンバーと1on1し、各人の今週フォーカス</text></svg>