<svg xmlns="http://www.w3.org/2000/svg" viewBox="0 0 430 604" font-family="Hiragino Sans, 'Noto Sans CJK JP', 'Yu Gothic', sans-serif" width="430" height="604"><defs><linearGradient id="goalGrad" x1="0" y1="0" x2="1" y2="1"><stop offset="0" stop-color="#5B4BE0"/><stop offset="0.5" stop-color="#B14BE0"/><stop offset="1" stop-color="#FFC24B"/></linearGradient><linearGradient id="phx" x1="0" y1="0" x2="0" y2="1"><stop offset="0" stop-color="#FFE259"/><stop offset="0.5" stop-color="#FF9A00"/><stop offset="1" stop-color="#FF3D00"/></linearGradient><linearGradient id="phx2" x1="0" y1="0" x2="0" y2="1"><stop offset="0" stop-color="#FFF0A0"/><stop offset="1" stop-color="#FF7A00"/></linearGradient><linearGradient id="hen" x1="0" y1="0" x2="1" y2="1"><stop offset="0" stop-color="#37C9B0"/><stop offset="0.6" stop-color="#3DA0E8"/><stop offset="1" stop-color="#7A5BE0"/></linearGradient><linearGradient id="pcock" x1="0" y1="0" x2="0" y2="1"><stop offset="0" stop-color="#2BD0C0"/><stop offset="0.55" stop-color="#2E8FD0"/><stop offset="1" stop-color="#2E4BB0"/></linearGradient><linearGradient id="gold" x1="0" y1="0" x2="0" y2="1"><stop offset="0" stop-color="#FFF0A8"/><stop offset="0.5" stop-color="#F2C230"/><stop offset="1" stop-color="#C8901A"/></linearGradient></defs><rect x="0" y="0" width="430" height="604" fill="#fff"/><text x="12" y="22" font-size="16" font-weight="700" fill="#1F2933">門田（ピタサチ・役員兼営業）</text><text x="12" y="40" font-size="11.5" fill="#67707A">契約を安定させる（クローザー）</text><text x="12" y="54" font-size="11" font-weight="700" fill="#6357CC">大枠：自分の型を確立し、ピタサチ代理店に勝ち型を展開して育てられる</text><text x="12" y="68" font-size="11" font-weight="700" fill="#2C5A93">中目標：自分の型を安定させ、ピタサチの成約率を把握・底上げ着手できる</text><text x="418" y="22" text-anchor="end" font-size="17" font-weight="700" fill="#1D9E75">達成率 0%</text><rect x="280" y="30" width="138" height="8" rx="4" fill="#F2F4F6"/><rect x="280" y="30" width="0" height="8" rx="4" fill="#1D9E75"/><rect x="12" y="82" width="270" height="64" rx="10" fill="url(#goalGrad)" stroke="#FFD36E" stroke-width="2"/><rect x="12" y="82" width="270" height="32.0" rx="10" fill="#fff" opacity="0.16"/><text x="24" y="102" font-size="12" font-weight="700" fill="#fff">ゴール</text><polygon points="267.0,90.0 268.4,94.6 273.0,96.0 268.4,97.4 267.0,102.0 265.6,97.4 261.0,96.0 265.6,94.6" fill="#FFF1B8"/><text x="24" y="122" font-size="14" font-weight="600" fill="#fff">客層を問わず自分の型で契約まで運び、</text><text x="24" y="139" font-size="14" font-weight="600" fill="#fff">成約が安定する</text><ellipse cx="350.0" cy="114.0" rx="19.5" ry="24.7" fill="#FFF3D6"/><ellipse cx="350.0" cy="114.0" rx="19.5" ry="24.7" fill="none" stroke="#E2D2A0" stroke-width="1.8"/><circle cx="343.5" cy="110.1" r="2.0" fill="#E6D3A0"/><circle cx="356.5" cy="120.5" r="1.7" fill="#E6D3A0"/><circle cx="351.3" cy="128.3" r="1.6" fill="#E6D3A0"/><text x="350" y="148" text-anchor="middle" font-size="11" font-weight="700" fill="#B7791F">あと2コ</text><rect x="12" y="158" width="406" height="46" rx="10" fill="#FDF3E2" stroke="#EF9F27"/><circle cx="26" cy="171" r="5.2" fill="none" stroke="#EF9F27" stroke-width="1.8"/><circle cx="26" cy="171" r="2.6" fill="none" stroke="#EF9F27" stroke-width="1.5"/><circle cx="26" cy="171" r="1.3" fill="#EF9F27"/><text x="37" y="175" font-size="12" font-weight="700" fill="#EF9F27">今週の最優先（今ここ：①型を知る）</text><text x="24" y="195" font-size="15" font-weight="700" fill="#1F2933">直近の成約・失注を5件ずつ振り返る</text><rect x="6" y="212" width="418" height="60" rx="9" fill="#FDF3E2" opacity="0.5"/><circle cx="18" cy="225" r="5.5" fill="#EF9F27"/><text x="30" y="229" font-size="13" font-weight="700" fill="#1F2933">①型を知る</text><rect x="330" y="216" width="88" height="19" rx="9.5" fill="#FDF3E2" stroke="#EF9F27"/><text x="374" y="229" text-anchor="middle" font-size="11" font-weight="700" fill="#EF9F27">7月第3週</text><rect x="30" y="238" width="13" height="13" rx="3" fill="#fff" stroke="#9AA3AD" stroke-width="1.4"/><text x="48" y="248" font-size="12" fill="#1F2933">直近の成約・失注を5件ずつ振り返る</text><rect x="30" y="254" width="13" height="13" rx="3" fill="#fff" stroke="#9AA3AD" stroke-width="1.4"/><text x="48" y="264" font-size="12" fill="#1F2933">勝ち／負けパターンを言語化する</text><circle cx="18" cy="291" r="5.5" fill="#9AA3AD"/><text x="30" y="295" font-size="13" font-weight="700" fill="#1F2933">②練習</text><rect x="330" y="282" width="88" height="19" rx="9.5" fill="#F2F4F6" stroke="#9AA3AD"/><text x="374" y="295" text-anchor="middle" font-size="11" font-weight="700" fill="#9AA3AD">7月第4週</text><rect x="30" y="304" width="13" height="13" rx="3" fill="#fff" stroke="#9AA3AD" stroke-width="1.4"/><text x="48" y="314" font-size="12" fill="#1F2933">苦手ケースの切り返しをロープレ</text><rect x="30" y="320" width="13" height="13" rx="3" fill="#fff" stroke="#9AA3AD" stroke-width="1.4"/><text x="48" y="330" font-size="12" fill="#1F2933">トップ商談の録音を聞く</text><circle cx="18" cy="357" r="5.5" fill="#9AA3AD"/><text x="30" y="361" font-size="13" font-weight="700" fill="#1F2933">③実践</text><rect x="330" y="348" width="88" height="19" rx="9.5" fill="#F2F4F6" stroke="#9AA3AD"/><text x="374" y="361" text-anchor="middle" font-size="11" font-weight="700" fill="#9AA3AD">8月第1週</text><rect x="30" y="370" width="13" height="13" rx="3" fill="#fff" stroke="#9AA3AD" stroke-width="1.4"/><text x="48" y="380" font-size="12" fill="#1F2933">商談前に型の要点を確認する</text><rect x="30" y="386" width="13" height="13" rx="3" fill="#fff" stroke="#9AA3AD" stroke-width="1.4"/><text x="48" y="396" font-size="12" fill="#1F2933">ネック処理を意図的に試す</text><circle cx="18" cy="423" r="5.5" fill="#9AA3AD"/><text x="30" y="427" font-size="13" font-weight="700" fill="#1F2933">④振り返り</text><rect x="330" y="414" width="88" height="19" rx="9.5" fill="#F2F4F6" stroke="#9AA3AD"/><text x="374" y="427" text-anchor="middle" font-size="11" font-weight="700" fill="#9AA3AD">8月第3週</text><rect x="30" y="436" width="13" height="13" rx="3" fill="#fff" stroke="#9AA3AD" stroke-width="1.4"/><text x="48" y="446" font-size="12" fill="#1F2933">週次で成約率の推移を確認</text><rect x="30" y="452" width="13" height="13" rx="3" fill="#fff" stroke="#9AA3AD" stroke-width="1.4"/><text x="48" y="462" font-size="12" fill="#1F2933">失注の共通要因を抽出する</text><rect x="30" y="468" width="13" height="13" rx="3" fill="#fff" stroke="#9AA3AD" stroke-width="1.4"/><text x="48" y="478" font-size="12" fill="#1F2933">【管理】ピタサチ全体の成約率を把握し、底上げ対象を決める</text><circle cx="18" cy="505" r="5.5" fill="#9AA3AD"/><text x="30" y="509" font-size="13" font-weight="700" fill="#1F2933">⑤自走</text><rect x="330" y="496" width="88" height="19" rx="9.5" fill="#F2F4F6" stroke="#9AA3AD"/><text x="374" y="509" text-anchor="middle" font-size="11" font-weight="700" fill="#9AA3AD">8月第4週</text><rect x="30" y="518" width="13" height="13" rx="3" fill="#fff" stroke="#9AA3AD" stroke-width="1.4"/><text x="48" y="528" font-size="12" fill="#1F2933">自分の型を後輩に共有する</text><rect x="30" y="534" width="13" height="13" rx="3" fill="#fff" stroke="#9AA3AD" stroke-width="1.4"/><text x="48" y="544" font-size="12" fill="#1F2933">勝ち型を標準トークに言語化・共有する</text><rect x="30" y="550" width="13" height="13" rx="3" fill="#fff" stroke="#9AA3AD" stroke-width="1.4"/><text x="48" y="560" font-size="12" fill="#1F2933">【管理】ピタサチメンバーと1on1し、各人のフォーカスを握る</text><rect x="30" y="566" width="13" height="13" rx="3" fill="#fff" stroke="#9AA3AD" stroke-width="1.4"/><text x="48" y="576" font-size="12" fill="#1F2933">【管理】ピタサチに勝ち型を標準トークとして展開する</text></svg>